<?xml version="1.0" encoding="utf-8"?>
<!-- Generator: Adobe Illustrator 21.0.0, SVG Export Plug-In . SVG Version: 6.00 Build 0)  -->
<svg version="1.1" id="圖層_1" xmlns="http://www.w3.org/2000/svg" xmlns:xlink="http://www.w3.org/1999/xlink" x="0px" y="0px"
	 viewBox="0 0 439 131" style="enable-background:new 0 0 439 131;" xml:space="preserve">
<style type="text/css">
	.st0{clip-path:url(#SVGID_2_);}
	.st1{fill:none;stroke:#333333;stroke-width:2;stroke-miterlimit:10;}
	.st2{fill:#F9D021;}
	.st3{opacity:9.000000e-02;fill:#333333;}
	.st4{fill:#FFFFFF;}
	.st5{font-family:'ArialMT';}
	.st6{font-size:22.0294px;}
	.st7{letter-spacing:2;}
	.st8{font-size:23.6142px;}
	.st9{font-family:'MicrosoftJhengHeiBold';}
	.st10{font-size:26.8589px;}
	.st11{letter-spacing:5;}
</style>
<g>
	<g>
		<defs>
			<rect id="SVGID_1_" x="9" y="9" width="430" height="122"/>
		</defs>
		<clipPath id="SVGID_2_">
			<use xlink:href="#SVGID_1_"  style="overflow:visible;"/>
		</clipPath>
		<g class="st0">
			<line class="st1" x1="-362.1" y1="249.6" x2="160.4" y2="772.1"/>
			<line class="st1" x1="-357.9" y1="245.3" x2="164.7" y2="767.9"/>
			<line class="st1" x1="-353.6" y1="241.1" x2="169" y2="763.6"/>
			<line class="st1" x1="-349.3" y1="236.9" x2="173.2" y2="759.4"/>
			<line class="st1" x1="-345" y1="232.6" x2="177.5" y2="755.2"/>
			<line class="st1" x1="-340.8" y1="228.4" x2="181.8" y2="750.9"/>
			<line class="st1" x1="-336.5" y1="224.1" x2="186.1" y2="746.7"/>
			<line class="st1" x1="-332.2" y1="219.9" x2="190.4" y2="742.4"/>
			<line class="st1" x1="-327.9" y1="215.6" x2="194.6" y2="738.2"/>
			<line class="st1" x1="-323.6" y1="211.4" x2="198.9" y2="733.9"/>
			<line class="st1" x1="-319.4" y1="207.2" x2="203.2" y2="729.7"/>
			<line class="st1" x1="-315.1" y1="202.9" x2="207.5" y2="725.5"/>
			<line class="st1" x1="-310.8" y1="198" x2="211.7" y2="720.5"/>
			<line class="st1" x1="-306.5" y1="193.7" x2="216" y2="716.3"/>
			<line class="st1" x1="-302.3" y1="189.5" x2="220.3" y2="712"/>
			<line class="st1" x1="-298" y1="185.2" x2="224.6" y2="707.8"/>
			<line class="st1" x1="-293.7" y1="181" x2="228.8" y2="703.5"/>
			<line class="st1" x1="-289.4" y1="176.7" x2="233.1" y2="699.3"/>
			<line class="st1" x1="-285.2" y1="172.5" x2="237.4" y2="695.1"/>
			<line class="st1" x1="-280.9" y1="168.3" x2="241.7" y2="690.8"/>
			<line class="st1" x1="-276.6" y1="164" x2="245.9" y2="686.6"/>
			<line class="st1" x1="-272.3" y1="159.8" x2="250.2" y2="682.3"/>
			<line class="st1" x1="-268.1" y1="155.5" x2="254.5" y2="678.1"/>
			<line class="st1" x1="-263.8" y1="151.3" x2="258.8" y2="673.8"/>
			<line class="st1" x1="-259.5" y1="147" x2="263" y2="669.6"/>
			<line class="st1" x1="-255.2" y1="142.8" x2="267.3" y2="665.4"/>
			<line class="st1" x1="-251" y1="138.6" x2="271.6" y2="661.1"/>
			<line class="st1" x1="-246.7" y1="134.3" x2="275.9" y2="656.9"/>
			<line class="st1" x1="-242.4" y1="130.1" x2="280.1" y2="652.6"/>
			<line class="st1" x1="-238.1" y1="125.8" x2="284.4" y2="648.4"/>
			<line class="st1" x1="-233.9" y1="121.6" x2="288.7" y2="644.1"/>
			<line class="st1" x1="-229.6" y1="117.3" x2="293" y2="639.9"/>
			<line class="st1" x1="-225.3" y1="113.1" x2="297.3" y2="635.7"/>
			<line class="st1" x1="-221" y1="108.9" x2="301.5" y2="631.4"/>
			<line class="st1" x1="-216.7" y1="104.6" x2="305.8" y2="627.2"/>
			<line class="st1" x1="-212.5" y1="100.4" x2="310.1" y2="622.9"/>
			<line class="st1" x1="-208.2" y1="95.4" x2="314.4" y2="618"/>
			<line class="st1" x1="-203.9" y1="91.2" x2="318.6" y2="613.7"/>
			<line class="st1" x1="-199.6" y1="86.9" x2="322.9" y2="609.5"/>
			<line class="st1" x1="-195.4" y1="82.7" x2="327.2" y2="605.3"/>
			<line class="st1" x1="-191.1" y1="78.5" x2="331.5" y2="601"/>
			<line class="st1" x1="-186.8" y1="74.2" x2="335.7" y2="596.8"/>
			<line class="st1" x1="-182.5" y1="70" x2="340" y2="592.5"/>
			<line class="st1" x1="-178.3" y1="65.7" x2="344.3" y2="588.3"/>
			<line class="st1" x1="-174" y1="61.5" x2="348.6" y2="584"/>
			<line class="st1" x1="-169.7" y1="57.2" x2="352.8" y2="579.8"/>
			<line class="st1" x1="-165.4" y1="53" x2="357.1" y2="575.6"/>
			<line class="st1" x1="-161.2" y1="48.8" x2="361.4" y2="571.3"/>
			<line class="st1" x1="-156.9" y1="44.5" x2="365.7" y2="567.1"/>
			<line class="st1" x1="-152.6" y1="40.3" x2="369.9" y2="562.8"/>
			<line class="st1" x1="-148.3" y1="36" x2="374.2" y2="558.6"/>
			<line class="st1" x1="-144.1" y1="31.8" x2="378.5" y2="554.3"/>
			<line class="st1" x1="-139.8" y1="27.5" x2="382.8" y2="550.1"/>
			<line class="st1" x1="-135.5" y1="23.3" x2="387" y2="545.9"/>
			<line class="st1" x1="-131.2" y1="19.1" x2="391.3" y2="541.6"/>
			<line class="st1" x1="-127" y1="14.8" x2="395.6" y2="537.4"/>
			<line class="st1" x1="-122.7" y1="10.6" x2="399.9" y2="533.1"/>
			<line class="st1" x1="-118.4" y1="6.3" x2="404.2" y2="528.9"/>
			<line class="st1" x1="-114.1" y1="2.1" x2="408.4" y2="524.6"/>
			<line class="st1" x1="-109.8" y1="-2.2" x2="412.7" y2="520.4"/>
			<line class="st1" x1="-105.6" y1="-7.1" x2="417" y2="515.5"/>
			<line class="st1" x1="-101.3" y1="-11.3" x2="421.3" y2="511.2"/>
			<line class="st1" x1="-97" y1="-15.6" x2="425.5" y2="507"/>
			<line class="st1" x1="-92.7" y1="-19.8" x2="429.8" y2="502.7"/>
			<line class="st1" x1="-88.5" y1="-24.1" x2="434.1" y2="498.5"/>
			<line class="st1" x1="-84.2" y1="-28.3" x2="438.4" y2="494.2"/>
			<line class="st1" x1="-79.9" y1="-32.6" x2="442.6" y2="490"/>
			<line class="st1" x1="-75.6" y1="-36.8" x2="446.9" y2="485.8"/>
			<line class="st1" x1="-71.4" y1="-41" x2="451.2" y2="481.5"/>
			<line class="st1" x1="-67.1" y1="-45.3" x2="455.5" y2="477.3"/>
			<line class="st1" x1="-62.8" y1="-49.5" x2="459.7" y2="473"/>
			<line class="st1" x1="-58.5" y1="-53.8" x2="464" y2="468.8"/>
			<line class="st1" x1="-54.3" y1="-58" x2="468.3" y2="464.5"/>
			<line class="st1" x1="-50" y1="-62.3" x2="472.6" y2="460.3"/>
			<line class="st1" x1="-45.7" y1="-66.5" x2="476.8" y2="456.1"/>
			<line class="st1" x1="-41.4" y1="-70.7" x2="481.1" y2="451.8"/>
			<line class="st1" x1="-37.2" y1="-75" x2="485.4" y2="447.6"/>
			<line class="st1" x1="-32.9" y1="-79.2" x2="489.7" y2="443.3"/>
			<line class="st1" x1="-28.6" y1="-83.5" x2="493.9" y2="439.1"/>
			<line class="st1" x1="-24.3" y1="-87.7" x2="498.2" y2="434.8"/>
			<line class="st1" x1="-20.1" y1="-92" x2="502.5" y2="430.6"/>
			<line class="st1" x1="-15.8" y1="-96.2" x2="506.8" y2="426.4"/>
			<line class="st1" x1="-11.5" y1="-100.4" x2="511.1" y2="422.1"/>
			<line class="st1" x1="-7.2" y1="-104.7" x2="515.3" y2="417.9"/>
			<line class="st1" x1="-2.9" y1="-109.6" x2="519.6" y2="412.9"/>
			<line class="st1" x1="1.3" y1="-113.9" x2="523.9" y2="408.7"/>
			<line class="st1" x1="5.6" y1="-118.1" x2="528.2" y2="404.4"/>
			<line class="st1" x1="9.9" y1="-122.4" x2="532.4" y2="400.2"/>
			<line class="st1" x1="14.2" y1="-126.6" x2="536.7" y2="395.9"/>
			<line class="st1" x1="18.4" y1="-130.8" x2="541" y2="391.7"/>
			<line class="st1" x1="22.7" y1="-135.1" x2="545.3" y2="387.5"/>
			<line class="st1" x1="27" y1="-139.3" x2="549.5" y2="383.2"/>
			<line class="st1" x1="31.3" y1="-143.6" x2="553.8" y2="379"/>
			<line class="st1" x1="35.5" y1="-147.8" x2="558.1" y2="374.7"/>
			<line class="st1" x1="39.8" y1="-152.1" x2="562.4" y2="370.5"/>
			<line class="st1" x1="44.1" y1="-156.3" x2="566.6" y2="366.3"/>
			<line class="st1" x1="48.4" y1="-161.3" x2="570.9" y2="361.3"/>
			<line class="st1" x1="52.6" y1="-165.5" x2="575.2" y2="357.1"/>
			<line class="st1" x1="56.9" y1="-169.7" x2="579.5" y2="352.8"/>
			<line class="st1" x1="61.2" y1="-174" x2="583.7" y2="348.6"/>
			<line class="st1" x1="65.5" y1="-178.2" x2="588" y2="344.3"/>
			<line class="st1" x1="69.7" y1="-182.5" x2="592.3" y2="340.1"/>
			<line class="st1" x1="74" y1="-186.7" x2="596.6" y2="335.8"/>
			<line class="st1" x1="78.3" y1="-190.9" x2="600.8" y2="331.6"/>
			<line class="st1" x1="82.6" y1="-195.2" x2="605.1" y2="327.4"/>
			<line class="st1" x1="86.8" y1="-199.4" x2="609.4" y2="323.1"/>
			<line class="st1" x1="91.1" y1="-203.7" x2="613.7" y2="318.9"/>
			<line class="st1" x1="95.4" y1="-207.9" x2="617.9" y2="314.6"/>
			<line class="st1" x1="99.7" y1="-212.9" x2="622.2" y2="309.7"/>
			<line class="st1" x1="103.9" y1="-217.1" x2="626.5" y2="305.4"/>
			<line class="st1" x1="108.2" y1="-221.4" x2="630.8" y2="301.2"/>
			<line class="st1" x1="112.5" y1="-225.6" x2="635.1" y2="297"/>
			<line class="st1" x1="116.8" y1="-229.8" x2="639.3" y2="292.7"/>
			<line class="st1" x1="121.1" y1="-234.1" x2="643.6" y2="288.5"/>
			<line class="st1" x1="125.3" y1="-238.3" x2="647.9" y2="284.2"/>
			<line class="st1" x1="129.6" y1="-242.6" x2="652.2" y2="280"/>
			<line class="st1" x1="133.9" y1="-246.8" x2="656.4" y2="275.7"/>
			<line class="st1" x1="138.2" y1="-251.1" x2="660.7" y2="271.5"/>
			<line class="st1" x1="142.4" y1="-255.3" x2="665" y2="267.3"/>
			<line class="st1" x1="146.7" y1="-259.5" x2="669.3" y2="263"/>
			<line class="st1" x1="151" y1="-263.8" x2="673.5" y2="258.8"/>
			<line class="st1" x1="155.3" y1="-268" x2="677.8" y2="254.5"/>
			<line class="st1" x1="159.5" y1="-272.3" x2="682.1" y2="250.3"/>
			<line class="st1" x1="163.8" y1="-276.5" x2="686.4" y2="246"/>
			<line class="st1" x1="168.1" y1="-280.8" x2="690.6" y2="241.8"/>
			<line class="st1" x1="172.4" y1="-285" x2="694.9" y2="237.6"/>
			<line class="st1" x1="176.6" y1="-289.2" x2="699.2" y2="233.3"/>
			<line class="st1" x1="180.9" y1="-293.5" x2="703.5" y2="229.1"/>
			<line class="st1" x1="185.2" y1="-297.7" x2="707.7" y2="224.8"/>
			<line class="st1" x1="189.5" y1="-302" x2="712" y2="220.6"/>
			<line class="st1" x1="193.7" y1="-306.2" x2="716.3" y2="216.3"/>
			<line class="st1" x1="198" y1="-310.5" x2="720.6" y2="212.1"/>
			<line class="st1" x1="202.3" y1="-315.4" x2="724.8" y2="207.2"/>
			<line class="st1" x1="206.6" y1="-319.6" x2="729.1" y2="202.9"/>
			<line class="st1" x1="210.8" y1="-323.9" x2="733.4" y2="198.7"/>
			<line class="st1" x1="215.1" y1="-328.1" x2="737.7" y2="194.4"/>
			<line class="st1" x1="219.4" y1="-332.4" x2="742" y2="190.2"/>
			<line class="st1" x1="223.7" y1="-336.6" x2="746.2" y2="185.9"/>
			<line class="st1" x1="228" y1="-340.9" x2="750.5" y2="181.7"/>
			<line class="st1" x1="232.2" y1="-345.1" x2="754.8" y2="177.5"/>
			<line class="st1" x1="236.5" y1="-349.3" x2="759.1" y2="173.2"/>
			<line class="st1" x1="240.8" y1="-353.6" x2="763.3" y2="169"/>
			<line class="st1" x1="245.1" y1="-357.8" x2="767.6" y2="164.7"/>
			<line class="st1" x1="249.3" y1="-362.1" x2="771.9" y2="160.5"/>
			<line class="st1" x1="253.6" y1="-366.3" x2="776.2" y2="156.2"/>
			<line class="st1" x1="257.9" y1="-370.6" x2="780.4" y2="152"/>
			<line class="st1" x1="262.2" y1="-374.8" x2="784.7" y2="147.8"/>
			<line class="st1" x1="266.4" y1="-379" x2="789" y2="143.5"/>
			<line class="st1" x1="270.7" y1="-383.3" x2="793.3" y2="139.3"/>
			<line class="st1" x1="275" y1="-387.5" x2="797.5" y2="135"/>
			<line class="st1" x1="279.3" y1="-391.8" x2="801.8" y2="130.8"/>
			<line class="st1" x1="283.5" y1="-396" x2="806.1" y2="126.5"/>
			<line class="st1" x1="287.8" y1="-400.3" x2="810.4" y2="122.3"/>
			<line class="st1" x1="292.1" y1="-404.5" x2="814.6" y2="118.1"/>
			<line class="st1" x1="296.4" y1="-408.7" x2="818.9" y2="113.8"/>
			<line class="st1" x1="300.6" y1="-413" x2="823.2" y2="109.6"/>
			<line class="st1" x1="304.9" y1="-417.9" x2="827.5" y2="104.6"/>
			<line class="st1" x1="309.2" y1="-422.2" x2="831.7" y2="100.4"/>
			<line class="st1" x1="313.5" y1="-426.4" x2="836" y2="96.1"/>
			<line class="st1" x1="317.7" y1="-430.7" x2="840.3" y2="91.9"/>
			<line class="st1" x1="322" y1="-434.9" x2="844.6" y2="87.7"/>
			<line class="st1" x1="326.3" y1="-439.1" x2="848.9" y2="83.4"/>
			<line class="st1" x1="330.6" y1="-443.4" x2="853.1" y2="79.2"/>
			<line class="st1" x1="334.9" y1="-447.6" x2="857.4" y2="74.9"/>
			<line class="st1" x1="339.1" y1="-451.9" x2="861.7" y2="70.7"/>
			<line class="st1" x1="343.4" y1="-456.1" x2="866" y2="66.4"/>
			<line class="st1" x1="347.7" y1="-460.4" x2="870.2" y2="62.2"/>
			<line class="st1" x1="352" y1="-464.6" x2="874.5" y2="58"/>
			<line class="st1" x1="356.2" y1="-468.8" x2="878.8" y2="53.7"/>
			<line class="st1" x1="360.5" y1="-473.1" x2="883.1" y2="49.5"/>
			<line class="st1" x1="364.8" y1="-477.3" x2="887.3" y2="45.2"/>
			<line class="st1" x1="369.1" y1="-481.6" x2="891.6" y2="41"/>
			<line class="st1" x1="373.3" y1="-485.8" x2="895.9" y2="36.7"/>
			<line class="st1" x1="377.6" y1="-490.1" x2="900.2" y2="32.5"/>
			<line class="st1" x1="381.9" y1="-494.3" x2="904.4" y2="28.3"/>
			<line class="st1" x1="386.2" y1="-498.5" x2="908.7" y2="24"/>
			<line class="st1" x1="390.4" y1="-502.8" x2="913" y2="19.8"/>
			<line class="st1" x1="394.7" y1="-507" x2="917.3" y2="15.5"/>
			<line class="st1" x1="399" y1="-511.3" x2="921.5" y2="11.3"/>
			<line class="st1" x1="403.3" y1="-515.5" x2="925.8" y2="7"/>
			<line class="st1" x1="407.5" y1="-520.5" x2="930.1" y2="2.1"/>
			<line class="st1" x1="411.8" y1="-524.7" x2="934.4" y2="-2.2"/>
			<line class="st1" x1="416.1" y1="-528.9" x2="938.6" y2="-6.4"/>
			<line class="st1" x1="420.4" y1="-533.2" x2="942.9" y2="-10.6"/>
			<line class="st1" x1="424.6" y1="-537.4" x2="947.2" y2="-14.9"/>
			<line class="st1" x1="428.9" y1="-541.7" x2="951.5" y2="-19.1"/>
			<line class="st1" x1="433.2" y1="-545.9" x2="955.8" y2="-23.4"/>
			<line class="st1" x1="437.5" y1="-550.2" x2="960" y2="-27.6"/>
			<line class="st1" x1="441.8" y1="-554.4" x2="964.3" y2="-31.9"/>
			<line class="st1" x1="446" y1="-558.6" x2="968.6" y2="-36.1"/>
			<line class="st1" x1="450.3" y1="-562.9" x2="972.9" y2="-40.3"/>
			<line class="st1" x1="454.6" y1="-567.1" x2="977.1" y2="-44.6"/>
		</g>
	</g>
	<rect class="st2" width="430" height="122"/>
	<rect class="st3" width="430" height="122"/>
	<g>
		<text transform="matrix(1 0 0 1 57.9935 67.0404)" class="st4 st5 st6 st7">SMART CITY HACKATHON</text>
	</g>
	<g>
		<text transform="matrix(1 0 0 1 87.588 102.832)" class="st4 st5 st8">18’ OCT 06 - 18’ OCT 08</text>
	</g>
	<g>
		<text transform="matrix(1 0 0 1 55.9297 34.2417)" class="st4 st9 st10 st11">2018 智慧城市黑客松</text>
	</g>
</g>
</svg>
