<?xml version="1.0" encoding="utf-8"?>
<!-- Generator: Adobe Illustrator 21.0.0, SVG Export Plug-In . SVG Version: 6.00 Build 0)  -->
<svg version="1.1" id="圖層_1" xmlns="http://www.w3.org/2000/svg" xmlns:xlink="http://www.w3.org/1999/xlink" x="0px" y="0px"
	 viewBox="0 0 451 57.7" style="enable-background:new 0 0 451 57.7;" xml:space="preserve">
<style type="text/css">
	.st0{fill:#333333;}
	.st1{fill:#3E3A39;}
	.st2{fill:#F9D021;}
</style>
<g>
	<path class="st0" d="M14.3,1.4v54.7h40.5V1.4H14.3z M42.5,54.6H26.6v-9.2h15.8V54.6z M53.3,44.8H15.8V30.9h37.4V44.8z M53.3,28.8
		H15.8V3.5h37.4V28.8z"/>
	<path class="st0" d="M137.8,8.1c0,0.6,0.3,1,0.7,1.2c-0.6,0-1.2,0.6-1.4,1.4h-8.1c-8.2,0-14.8,8.9-14.8,19.8s6.7,19.8,14.8,19.8
		h8.1c0.2,0.8,0.7,1.4,1.4,1.4c-0.4,0.2-0.7,0.6-0.7,1.2c0,0.8,0.5,1.5,1.1,1.5h8c0.6,0,1.1-0.7,1.1-1.5c0-0.6-0.3-1-0.7-1.2h0.3
		c0.8,0,1.5-0.9,1.5-2c0-1.1-0.7-2-1.5-2h-9c-0.7,0-1.2,0.6-1.4,1.4h-8.1c-7.7,0-14-8.4-14-18.7s6.3-18.7,14-18.7h8.1
		c0.2,0.8,0.7,1.4,1.4,1.4h9c0.8,0,1.5-0.9,1.5-2c0-1.1-0.7-2-1.5-2h-0.3c0.4-0.2,0.7-0.6,0.7-1.2c0-0.8-0.5-1.5-1.1-1.5h-8
		C138.3,6.7,137.8,7.3,137.8,8.1z M146.9,52c0.4,0,0.8,0.5,0.8,1c0,0.6-0.3,1-0.8,1h-8c-0.4,0-0.8-0.5-0.8-1c0-0.6,0.3-1,0.8-1
		H146.9z M146.9,7.1c0.4,0,0.8,0.5,0.8,1s-0.3,1-0.8,1h-8c-0.4,0-0.8-0.5-0.8-1s0.3-1,0.8-1H146.9z"/>
	<g>
		<path class="st0" d="M174.9,7.8c-0.4,0-0.7,0.1-0.9,0.4V7.3c0-0.8-0.7-1.5-1.5-1.5c-0.8,0-1.5,0.7-1.5,1.5v0.8
			c-0.3-0.2-0.6-0.4-0.9-0.4s-0.7,0.1-0.9,0.4V8.1c0-1-0.8-1.9-1.9-1.9s-1.9,0.8-1.9,1.9v0.1c-0.3-0.2-0.6-0.4-0.9-0.4
			c-0.8,0-1.4,0.6-1.4,1.4v45.4c0,0.8,0.6,1.4,1.4,1.4c0.4,0,0.8-0.2,1-0.5c0.2,0.7,0.9,1.3,1.8,1.3s1.5-0.5,1.8-1.3
			c0.3,0.3,0.6,0.5,1,0.5c0.4,0,0.7-0.1,0.9-0.4v0.8c0,0.8,0.7,1.5,1.5,1.5c0.8,0,1.5-0.7,1.5-1.5v-0.8c0.3,0.2,0.6,0.4,0.9,0.4
			c0.8,0,1.4-0.6,1.4-1.4V9.2C176.3,8.4,175.7,7.8,174.9,7.8z M168.2,54.9c0,0.5-0.4,0.9-0.9,0.9c-0.5,0-0.9-0.4-0.9-0.9V8.1
			c0-0.5,0.4-0.9,0.9-0.9c0.5,0,0.9,0.4,0.9,0.9V54.9z M173.1,56.4c0,0.3-0.3,0.6-0.6,0.6s-0.6-0.3-0.6-0.6V7.3
			c0-0.3,0.3-0.6,0.6-0.6s0.6,0.3,0.6,0.6V56.4z"/>
		<path class="st0" d="M193.5,11.6c-0.3-0.2-0.7-0.2-1-0.1c-0.7,0.2-1.2,1-1.3,1.5c0,0.2-0.1,0.4-0.1,0.6c0,0.5-0.1,1-0.4,1.2
			c-0.2,0.2-0.5,0.2-0.8,0.2c-0.7-0.1-1.2,0.3-1.5,1.5c0,0.1-0.1,0.2-0.1,0.3c-0.2,0.9-0.7,2.7-2.5,2.7c0,0,0,0,0,0
			c-1.2,0-1.4,0.9-1.5,1.9c0,0.2,0,0.4-0.1,0.5c-0.1,0.4-0.3,0.4-0.6,0.4c-0.1,0-0.3,0-0.6,0.1c-0.4,0.1-0.6,1.1-0.8,1.9
			c-0.1,0.4-0.2,0.7-0.3,1c-0.3,0.8-1,1.4-2.2,1.7c-0.4,0.1-0.5,0.6-0.7,1.3c-0.1,0.3-0.1,0.7-0.3,1c0,0.1-0.1,0.2-0.2,0.2
			c0,0,0,0-0.1,0c-0.1,0-0.2-0.2-0.1-0.3c0.1-0.3,0.2-0.7,0.2-1c0.2-0.8,0.3-1.5,1-1.7c1-0.2,1.6-0.7,1.8-1.4
			c0.1-0.3,0.2-0.6,0.3-0.9c0.2-1,0.5-2,1.1-2.2c0.4-0.1,0.6-0.1,0.8-0.1c0,0,0.1,0,0.1,0c0,0,0,0,0-0.1c0-0.1,0-0.2,0.1-0.4
			c0.1-0.7,0.3-2.3,1.9-2.3c0,0,0,0,0,0c1.4,0,1.8-1.5,2-2.4c0-0.1,0.1-0.2,0.1-0.3c0.1-0.5,0.6-2,2-1.8c0.2,0,0.4,0,0.5-0.1
			c0.2-0.1,0.2-0.5,0.2-0.9c0-0.2,0-0.5,0.1-0.7c0.1-0.6,0.6-1.5,1.6-1.8c0.3-0.1,0.8-0.1,1.3,0.2"/>
		<path class="st0" d="M195.2,49.6C195.2,49.6,195.2,49.6,195.2,49.6c-0.3-0.1-0.6-0.1-0.9-0.2c-0.7-0.1-1.3-0.2-1.6-0.9
			c-0.3-1.2-0.8-1.8-1.4-2c-0.2-0.1-0.5-0.1-0.8-0.2c-0.8-0.1-1.8-0.3-2-1c-0.1-0.4-0.2-0.7-0.2-0.9c0-0.2,0-0.2-0.1-0.2
			c0,0-0.2,0-0.3,0c-0.6,0-2,0-2.2-2c-0.2-1.8-1.5-2-2.2-2.2c-0.1,0-0.2,0-0.3-0.1c-0.4-0.1-1.7-0.4-1.8-2.1c0-0.3-0.1-0.5-0.2-0.7
			c-0.1-0.1-0.4-0.1-0.7-0.1c-0.2,0-0.4,0-0.6,0c-0.4-0.1-1.2-0.4-1.6-1.3c-0.3-0.6-0.5-1.8,0.4-3.4c0.1-0.1,0.2-0.1,0.3-0.1
			c0.1,0.1,0.1,0.2,0.1,0.3c-0.7,1.2-0.8,2.2-0.4,3c0.3,0.6,0.9,1,1.2,1c0.2,0,0.3,0,0.5,0c0.4,0,0.8,0,1,0.2c0.2,0.2,0.3,0.5,0.3,1
			c0,1.2,0.8,1.5,1.4,1.7c0.1,0,0.2,0,0.3,0.1c0.8,0.1,2.4,0.5,2.6,2.6c0.2,1.6,1.1,1.6,1.7,1.6c0.2,0,0.3,0,0.4,0
			c0.3,0.1,0.4,0.4,0.4,0.6c0,0.2,0,0.4,0.2,0.8c0.2,0.5,1,0.6,1.7,0.7c0.3,0.1,0.6,0.1,0.9,0.2c0.7,0.2,1.3,1,1.7,2.3
			c0.1,0.5,0.5,0.5,1.2,0.6c0.3,0,0.6,0.1,0.9,0.2c0.1,0,0.2,0.2,0.2,0.3C195.4,49.6,195.3,49.6,195.2,49.6z"/>
		<path class="st0" d="M197.9,9.3v41.3c0,0.5-0.4,0.9-0.9,0.9h-0.4c-0.2,0-0.5-0.1-0.7-0.3l-18.7-19.7c-0.2-0.2-0.3-0.4-0.3-0.6
			v-0.3c0-0.2,0.1-0.4,0.2-0.6l18.1-21.3c0.2-0.2,0.4-0.3,0.7-0.3h1C197.5,8.4,197.9,8.8,197.9,9.3z M197,50.6V9.3h-1l-18.1,21.3
			l0,0.3l18.7,19.7H197z"/>
	</g>
	<path class="st0" d="M242.4,49.9h-0.6L230,9.5c1.8-0.2,3.2-1.8,3.2-3.7c0-2.1-1.7-3.7-3.7-3.7s-3.7,1.7-3.7,3.7
		c0,1.9,1.4,3.4,3.2,3.7l-11.8,40.4h-0.6c-2.2,0-3.9,1.8-3.9,3.9s1.8,3.9,3.9,3.9h25.7c2.2,0,3.9-1.8,3.9-3.9S244.5,49.9,242.4,49.9
		z M226.7,5.8c0-1.6,1.3-2.8,2.8-2.8s2.8,1.3,2.8,2.8s-1.3,2.8-2.8,2.8S226.7,7.4,226.7,5.8z M242.4,56.8h-25.7c-1.7,0-3-1.3-3-3
		c0-1.7,1.3-3,3-3h0.9h23.9h0.9c1.7,0,3,1.3,3,3C245.4,55.5,244,56.8,242.4,56.8z"/>
	<g>
		<path class="st0" d="M284.4,5L284.4,5l-37.5,0v5.3h37.5v0l8.3-2.7L284.4,5z M284.4,9.7h-36.8V8h36.8V9.7z M284.4,7.3h-36.8V5.6
			h36.8V7.3z M289,6.7l2.8,0.9L289,8.5V6.7z"/>
	</g>
	<g>
		<path class="st0" d="M270.7,48.7L270.7,48.7l0-37.5h-5.3v37.5h0L268,57L270.7,48.7z M265.9,48.7V11.9h1.7v36.8H265.9z M268.3,48.7
			V11.9h1.7v36.8H268.3z M268.9,53.2L268,56l-0.9-2.8H268.9z"/>
	</g>
	<path class="st0" d="M295.8,12.1c-0.5,0-0.9,0.4-0.9,0.9c0,0.5,0.4,0.9,0.9,0.9h2.9c0.5,0,0.9-0.4,0.9-0.9c0-0.5-0.4-0.9-0.9-0.9
		H295.8z"/>
	<path class="st0" d="M295.8,20.9c-0.5,0-0.9,0.4-0.9,0.9s0.4,0.9,0.9,0.9h2.9c0.5,0,0.9-0.4,0.9-0.9s-0.4-0.9-0.9-0.9H295.8z"/>
	<path class="st0" d="M295.8,32.2c-0.5,0-0.9,0.4-0.9,0.9s0.4,0.9,0.9,0.9h2.9c0.5,0,0.9-0.4,0.9-0.9s-0.4-0.9-0.9-0.9H295.8z"/>
	<g id="XMLID_2_">
		<g>
			<path class="st0" d="M321.3,16.2h-18.3v0.5h18.3V16.2z M304.9,13.7h18.4v-0.5h-18.4V13.7z M329.5,5.8v0.9h-0.9h-1.5v21.2h-2.5v-2
				v-0.5h-25.1l-0.8-2.1c0.8,0,1.4-0.6,1.4-1.4s-0.6-1.4-1.4-1.4h-1.6v-6v0h1.6c0.8,0,1.4-0.6,1.4-1.4c0-0.8-0.6-1.4-1.4-1.4h-1.6
				V4.3h30v1.5H329.5z"/>
			<path class="st0" d="M321.3,39.2h-18.3v0.5h18.3V39.2z M321.3,38.3v-0.5h-18.3v0.5H321.3z M298.6,51.9h-1.5v-6.3h1.6
				c0.8,0,1.4-0.6,1.4-1.4s-0.6-1.4-1.4-1.4h-1.6v-8.2h1.6c0.8,0,1.4-0.6,1.4-1.4s-0.6-1.4-1.4-1.4h-1.6v-8.5h1.6l0.8,2.1v0.5h25.1
				v2h-25.1v0.5h25.1v-0.5h2.5v24h-27.6v1.5h29.1V6.7h0.9v47.6h-30.9V51.9z"/>
		</g>
		<g>
		</g>
	</g>
	<path class="st0" d="M295.8,43.2c-0.5,0-0.9,0.4-0.9,0.9c0,0.5,0.4,0.9,0.9,0.9h2.9c0.5,0,0.9-0.4,0.9-0.9c0-0.5-0.4-0.9-0.9-0.9
		H295.8z"/>
	<g id="XMLID_3_">
		<g>
			<path class="st1" d="M390.3,28.1c0-12.6-10.2-22.8-22.8-22.8s-22.8,10.2-22.8,22.8s10.2,22.8,22.8,22.8S390.3,40.7,390.3,28.1z
				 M343.4,28.1c0-13.4,10.8-24.2,24.2-24.2s24.2,10.8,24.2,24.2s-10.8,24.2-24.2,24.2S343.4,41.5,343.4,28.1z"/>
		</g>
		<g>
		</g>
	</g>
	<polygon class="st1" points="367.9,28.4 367.6,28.1 367.3,28.4 357.6,18.8 358.2,18.1 367.6,27.5 381.4,14.2 382.1,14.8 	"/>
	<polygon class="st2" points="367.6,27.5 367.3,27.8 367.6,28.1 367.9,27.8 	"/>
	<circle class="st0" cx="367.4" cy="27.7" r="0.9"/>
	<path class="st0" d="M438,4.4h-0.9V0.2h-3.7v4.2h-0.7v13.5h1.8v28.7L403.3,8.5c-0.2-0.3-0.7-0.4-1-0.3c-0.4,0.1-0.6,0.5-0.6,0.9
		v40.1c0,0.5,0.4,0.9,0.9,0.9s0.9-0.4,0.9-0.9V11.6l31.2,38.1c0.2,0.2,0.4,0.3,0.7,0.3c0.1,0,0.2,0,0.3-0.1c0.4-0.1,0.6-0.5,0.6-0.9
		V17.9h1.8V4.4z M433.6,0.4h3.3v3.9h-3.3V0.4z"/>
	<g>
		<g id="XMLID_1_">
			<g>
				<path class="st0" d="M106.1,48.4c0-0.4-0.2-0.8-0.5-1.2l-19-43.3l-19,43.3c-0.3,0.4-0.5,0.8-0.5,1.2c0,2.9,8.7,5.3,19.5,5.3
					S106.1,51.3,106.1,48.4z M108.5,50c0.4,0.5,0.6,0.9,0.6,1.4c0,3.4-10.1,6.1-22.5,6.1s-22.5-2.7-22.5-6.1c0-0.5,0.2-0.9,0.6-1.4
					L86.7,0L108.5,50z"/>
			</g>
			<g>
			</g>
		</g>
		<ellipse class="st0" cx="87.5" cy="19.6" rx="2.5" ry="1.8"/>
		<ellipse class="st0" cx="90" cy="34.1" rx="6.4" ry="4.6"/>
		<path class="st0" d="M79.2,25.9c0.3-1,1.6-1.6,2.9-1.5c1.4,0.2,2.3,1.1,2,2.1c-0.3,1-1.6,1.6-2.9,1.5
			C79.8,27.9,78.9,26.9,79.2,25.9z"/>
		<ellipse class="st0" cx="75.8" cy="41.9" rx="4.4" ry="3.2"/>
		<ellipse class="st0" cx="83.1" cy="49" rx="3.7" ry="2.7"/>
		<ellipse class="st0" cx="93.5" cy="43.8" rx="3.5" ry="2.5"/>
	</g>
</g>
</svg>
