<?xml version="1.0" encoding="utf-8"?>
<!-- Generator: Adobe Illustrator 21.0.0, SVG Export Plug-In . SVG Version: 6.00 Build 0)  -->
<svg version="1.1" id="圖層_1" xmlns="http://www.w3.org/2000/svg" xmlns:xlink="http://www.w3.org/1999/xlink" x="0px" y="0px"
	 viewBox="0 0 1366 263" style="enable-background:new 0 0 1366 263;" xml:space="preserve">
<style type="text/css">
	.st0{fill:#333333;}
</style>
<polygon class="st0" points="1227.9,263 1210,263 1210,201 1193,201 1193,259 1182,259 1182,243 1165,243 1165,216 1142,216 
	1142,263 1114,263 1114,184 1090,184 1090,263 1075,263 1075,224 1059,224 1059,168 1039,168 1039,258 1029,258 1029,218 1016,218 
	1016,245 1007,245 1007,198 966,198 966,263 0,263 0,262 965,262 965,197 1008,197 1008,244 1015,244 1015,217 1030,217 1030,257 
	1038,257 1038,167 1060,167 1060,223 1076,223 1076,262 1089,262 1089,183 1115,183 1115,262 1141,262 1141,215 1166,215 1166,242 
	1183,242 1183,258 1192,258 1192,200 1211,200 1211,262 1227.1,262 1232,218.5 1226.9,198 1231.9,198 1226.9,178 1231.9,178 
	1226.9,158 1231.9,158 1226.9,138 1231.9,138 1226.9,118 1231.9,118 1226.9,98 1231.9,98 1226.9,78 1231.9,78 1226.9,58 1241.3,58 
	1239,29.5 1244,29.5 1242.5,19.5 1247.5,19.5 1247.5,0.5 1251.5,0.5 1251.5,19.5 1257,19.5 1255.5,29.5 1260.5,29.5 1258.2,58 
	1272.6,58 1267.6,78 1272.6,78 1267.6,98 1272.6,98 1267.6,118 1272.6,118 1267.6,138 1272.6,138 1267.6,158 1272.6,158 1267.6,178 
	1272.6,178 1267.6,198 1272.6,198 1267.5,218.5 1272.4,261.5 1284,261.5 1284,217 1320,217 1320,246 1326,246 1326,226 1335,226 
	1335,252 1366,252 1366,253 1334,253 1334,227 1327,227 1327,247 1319,247 1319,218 1285,218 1285,262.5 1271.6,262.5 1266.5,218.5 
	1266.5,218.4 1271.4,199 1266.4,199 1271.4,179 1266.4,179 1271.4,159 1266.4,159 1271.4,139 1266.4,139 1271.4,119 1266.4,119 
	1271.4,99 1266.4,99 1271.4,79 1266.4,79 1271.4,59 1257.2,59 1259.5,30.5 1254.3,30.5 1255.8,20.5 1250.5,20.5 1250.5,1.5 
	1248.5,1.5 1248.5,20.5 1243.7,20.5 1245.2,30.5 1240,30.5 1242.3,59 1228.1,59 1233.1,79 1228.1,79 1233.1,99 1228.1,99 
	1233.1,119 1228.1,119 1233.1,139 1228.1,139 1233.1,159 1228.1,159 1233.1,179 1228.1,179 1233.1,199 1228.1,199 1233,218.5 
	1233,218.6 "/>
</svg>
