<svg id="圖層_1" data-name="圖層 1" xmlns="http://www.w3.org/2000/svg" xmlns:xlink="http://www.w3.org/1999/xlink" viewBox="0 0 395 244"><defs><style>.cls-1,.cls-3{fill:none;}.cls-2{clip-path:url(#clip-path);}.cls-3{stroke:#333;stroke-miterlimit:10;stroke-width:2px;}.cls-4{fill:#f9d021;}.cls-5,.cls-8,.cls-9{fill:#333;}.cls-5{opacity:0.09;}.cls-6{font-size:23.61417px;fill:#fff;}.cls-6,.cls-8{font-family:ArialMT, Arial;}.cls-7{letter-spacing:-0.01807em;}.cls-8{font-size:26.87078px;letter-spacing:0.2em;}</style><clipPath id="clip-path"><rect class="cls-1" x="17" y="20" width="378" height="224"/></clipPath></defs><title>BRING</title><g class="cls-2"><line class="cls-3" x1="-358.13012" y1="244.57821" x2="164.42179" y2="767.13012"/><line class="cls-3" x1="-353.85416" y1="240.33557" x2="168.69775" y2="762.88748"/><line class="cls-3" x1="-349.5782" y1="236.09293" x2="172.97371" y2="758.64484"/><line class="cls-3" x1="-345.30224" y1="231.85029" x2="177.24967" y2="754.4022"/><line class="cls-3" x1="-341.02628" y1="227.60765" x2="181.52563" y2="750.15956"/><line class="cls-3" x1="-336.75032" y1="223.36501" x2="185.80159" y2="745.91692"/><line class="cls-3" x1="-332.47436" y1="219.12237" x2="190.07755" y2="741.67428"/><line class="cls-3" x1="-328.1984" y1="214.87973" x2="194.35351" y2="737.43164"/><line class="cls-3" x1="-323.92244" y1="210.63708" x2="198.62947" y2="733.189"/><line class="cls-3" x1="-319.64648" y1="206.39444" x2="202.90543" y2="728.94636"/><line class="cls-3" x1="-315.37052" y1="202.1518" x2="207.18139" y2="724.70371"/><line class="cls-3" x1="-311.09456" y1="197.90916" x2="211.45735" y2="720.46107"/><line class="cls-3" x1="-306.8186" y1="192.95942" x2="215.73331" y2="715.51133"/><line class="cls-3" x1="-302.54264" y1="188.71677" x2="220.00927" y2="711.26869"/><line class="cls-3" x1="-298.26668" y1="184.47413" x2="224.28523" y2="707.02605"/><line class="cls-3" x1="-293.99072" y1="180.23149" x2="228.56119" y2="702.7834"/><line class="cls-3" x1="-289.71476" y1="175.98885" x2="232.83715" y2="698.54076"/><line class="cls-3" x1="-285.4388" y1="171.74621" x2="237.11311" y2="694.29812"/><line class="cls-3" x1="-281.16284" y1="167.50357" x2="241.38907" y2="690.05548"/><line class="cls-3" x1="-276.88688" y1="163.26093" x2="245.66503" y2="685.81284"/><line class="cls-3" x1="-272.61092" y1="159.01829" x2="249.94099" y2="681.5702"/><line class="cls-3" x1="-268.33496" y1="154.77565" x2="254.21695" y2="677.32756"/><line class="cls-3" x1="-264.059" y1="150.53301" x2="258.49291" y2="673.08492"/><line class="cls-3" x1="-259.78305" y1="146.29037" x2="262.76887" y2="668.84228"/><line class="cls-3" x1="-255.50709" y1="142.04773" x2="267.04483" y2="664.59964"/><line class="cls-3" x1="-251.23113" y1="137.80509" x2="271.32079" y2="660.357"/><line class="cls-3" x1="-246.95517" y1="133.56245" x2="275.59675" y2="656.11436"/><line class="cls-3" x1="-242.67921" y1="129.31981" x2="279.87271" y2="651.87172"/><line class="cls-3" x1="-238.40325" y1="125.07716" x2="284.14867" y2="647.62908"/><line class="cls-3" x1="-234.12729" y1="120.83452" x2="288.42463" y2="643.38644"/><line class="cls-3" x1="-229.85133" y1="116.59188" x2="292.70059" y2="639.14379"/><line class="cls-3" x1="-225.57537" y1="112.34924" x2="296.97655" y2="634.90115"/><line class="cls-3" x1="-221.29941" y1="108.1066" x2="301.2525" y2="630.65851"/><line class="cls-3" x1="-217.02345" y1="103.86396" x2="305.52846" y2="626.41587"/><line class="cls-3" x1="-212.74749" y1="99.62132" x2="309.80442" y2="622.17323"/><line class="cls-3" x1="-208.47153" y1="95.37868" x2="314.08038" y2="617.93059"/><line class="cls-3" x1="-204.19557" y1="90.42893" x2="318.35634" y2="612.98084"/><line class="cls-3" x1="-199.91961" y1="86.18629" x2="322.6323" y2="608.7382"/><line class="cls-3" x1="-195.64365" y1="81.94365" x2="326.90826" y2="604.49556"/><line class="cls-3" x1="-191.36769" y1="77.70101" x2="331.18422" y2="600.25292"/><line class="cls-3" x1="-187.09173" y1="73.45837" x2="335.46018" y2="596.01028"/><line class="cls-3" x1="-182.81577" y1="69.21573" x2="339.73614" y2="591.76764"/><line class="cls-3" x1="-178.53981" y1="64.97309" x2="344.0121" y2="587.525"/><line class="cls-3" x1="-174.26385" y1="60.73045" x2="348.28806" y2="583.28236"/><line class="cls-3" x1="-169.98789" y1="56.48781" x2="352.56402" y2="579.03972"/><line class="cls-3" x1="-165.71193" y1="52.24517" x2="356.83998" y2="574.79708"/><line class="cls-3" x1="-161.43597" y1="48.00253" x2="361.11594" y2="570.55444"/><line class="cls-3" x1="-157.16001" y1="43.75988" x2="365.3919" y2="566.3118"/><line class="cls-3" x1="-152.88405" y1="39.51724" x2="369.66786" y2="562.06916"/><line class="cls-3" x1="-148.60809" y1="35.2746" x2="373.94382" y2="557.82651"/><line class="cls-3" x1="-144.33213" y1="31.03196" x2="378.21978" y2="553.58387"/><line class="cls-3" x1="-140.05617" y1="26.78932" x2="382.49574" y2="549.34123"/><line class="cls-3" x1="-135.78021" y1="22.54668" x2="386.7717" y2="545.09859"/><line class="cls-3" x1="-131.50425" y1="18.30404" x2="391.04766" y2="540.85595"/><line class="cls-3" x1="-127.22829" y1="14.0614" x2="395.32362" y2="536.61331"/><line class="cls-3" x1="-122.95233" y1="9.81876" x2="399.59958" y2="532.37067"/><line class="cls-3" x1="-118.67637" y1="5.57612" x2="403.87554" y2="528.12803"/><line class="cls-3" x1="-114.40041" y1="1.33348" x2="408.1515" y2="523.88539"/><line class="cls-3" x1="-110.12445" y1="-2.90916" x2="412.42746" y2="519.64275"/><line class="cls-3" x1="-105.84849" y1="-7.1518" x2="416.70342" y2="515.40011"/><line class="cls-3" x1="-101.57253" y1="-12.10155" x2="420.97938" y2="510.45036"/><line class="cls-3" x1="-97.29657" y1="-16.34419" x2="425.25534" y2="506.20772"/><line class="cls-3" x1="-93.02061" y1="-20.58683" x2="429.5313" y2="501.96508"/><line class="cls-3" x1="-88.74465" y1="-24.82947" x2="433.80726" y2="497.72244"/><line class="cls-3" x1="-84.46869" y1="-29.07211" x2="438.08322" y2="493.4798"/><line class="cls-3" x1="-80.19273" y1="-33.31475" x2="442.35918" y2="489.23716"/><line class="cls-3" x1="-75.91677" y1="-37.5574" x2="446.63514" y2="484.99452"/><line class="cls-3" x1="-71.64081" y1="-41.80004" x2="450.9111" y2="480.75188"/><line class="cls-3" x1="-67.36485" y1="-46.04268" x2="455.18706" y2="476.50923"/><line class="cls-3" x1="-63.08889" y1="-50.28532" x2="459.46302" y2="472.26659"/><line class="cls-3" x1="-58.81293" y1="-54.52796" x2="463.73898" y2="468.02395"/><line class="cls-3" x1="-54.53697" y1="-58.7706" x2="468.01494" y2="463.78131"/><line class="cls-3" x1="-50.26101" y1="-63.01324" x2="472.2909" y2="459.53867"/><line class="cls-3" x1="-45.98505" y1="-67.25588" x2="476.56686" y2="455.29603"/><line class="cls-3" x1="-41.70909" y1="-71.49852" x2="480.84282" y2="451.05339"/><line class="cls-3" x1="-37.43313" y1="-75.74116" x2="485.11878" y2="446.81075"/><line class="cls-3" x1="-33.15717" y1="-79.9838" x2="489.39474" y2="442.56811"/><line class="cls-3" x1="-28.88121" y1="-84.22644" x2="493.6707" y2="438.32547"/><line class="cls-3" x1="-24.60525" y1="-88.46908" x2="497.94666" y2="434.08283"/><line class="cls-3" x1="-20.32929" y1="-92.71172" x2="502.22262" y2="429.84019"/><line class="cls-3" x1="-16.05333" y1="-96.95436" x2="506.49858" y2="425.59755"/><line class="cls-3" x1="-11.77737" y1="-101.19701" x2="510.77454" y2="421.35491"/><line class="cls-3" x1="-7.50141" y1="-105.43965" x2="515.0505" y2="417.11227"/><line class="cls-3" x1="-3.22545" y1="-109.68229" x2="519.32646" y2="412.86962"/><line class="cls-3" x1="1.05051" y1="-114.63203" x2="523.60242" y2="407.91988"/><line class="cls-3" x1="5.32647" y1="-118.87468" x2="527.87838" y2="403.67724"/><line class="cls-3" x1="9.60243" y1="-123.11732" x2="532.15434" y2="399.4346"/><line class="cls-3" x1="13.87839" y1="-127.35996" x2="536.4303" y2="395.19195"/><line class="cls-3" x1="18.15435" y1="-131.6026" x2="540.70626" y2="390.94931"/><line class="cls-3" x1="22.43031" y1="-135.84524" x2="544.98222" y2="386.70667"/><line class="cls-3" x1="26.70627" y1="-140.08788" x2="549.25818" y2="382.46403"/><line class="cls-3" x1="30.98223" y1="-144.33052" x2="553.53414" y2="378.22139"/><line class="cls-3" x1="35.25818" y1="-148.57316" x2="557.8101" y2="373.97875"/><line class="cls-3" x1="39.53414" y1="-152.8158" x2="562.08606" y2="369.73611"/><line class="cls-3" x1="43.8101" y1="-157.05844" x2="566.36202" y2="365.49347"/><line class="cls-3" x1="48.08606" y1="-161.30108" x2="570.63798" y2="361.25083"/><line class="cls-3" x1="52.36202" y1="-166.25083" x2="574.91394" y2="356.30108"/><line class="cls-3" x1="56.63798" y1="-170.49347" x2="579.1899" y2="352.05844"/><line class="cls-3" x1="60.91394" y1="-174.73611" x2="583.46586" y2="347.8158"/><line class="cls-3" x1="65.1899" y1="-178.97875" x2="587.74182" y2="343.57316"/><line class="cls-3" x1="69.46586" y1="-183.22139" x2="592.01777" y2="339.33052"/><line class="cls-3" x1="73.74182" y1="-187.46403" x2="596.29373" y2="335.08788"/><line class="cls-3" x1="78.01778" y1="-191.70667" x2="600.56969" y2="330.84524"/><line class="cls-3" x1="82.29374" y1="-195.94931" x2="604.84565" y2="326.6026"/><line class="cls-3" x1="86.5697" y1="-200.19195" x2="609.12161" y2="322.35996"/><line class="cls-3" x1="90.84566" y1="-204.4346" x2="613.39757" y2="318.11732"/><line class="cls-3" x1="95.12162" y1="-208.67724" x2="617.67353" y2="313.87468"/><line class="cls-3" x1="99.39758" y1="-212.91988" x2="621.94949" y2="309.63203"/><line class="cls-3" x1="103.67354" y1="-217.86962" x2="626.22545" y2="304.68229"/><line class="cls-3" x1="107.9495" y1="-222.11227" x2="630.50141" y2="300.43965"/><line class="cls-3" x1="112.22546" y1="-226.35491" x2="634.77737" y2="296.19701"/><line class="cls-3" x1="116.50142" y1="-230.59755" x2="639.05333" y2="291.95436"/><line class="cls-3" x1="120.77738" y1="-234.84019" x2="643.32929" y2="287.71172"/><line class="cls-3" x1="125.05334" y1="-239.08283" x2="647.60525" y2="283.46908"/><line class="cls-3" x1="129.3293" y1="-243.32547" x2="651.88121" y2="279.22644"/><line class="cls-3" x1="133.60526" y1="-247.56811" x2="656.15717" y2="274.9838"/><line class="cls-3" x1="137.88122" y1="-251.81075" x2="660.43313" y2="270.74116"/><line class="cls-3" x1="142.15718" y1="-256.05339" x2="664.70909" y2="266.49852"/><line class="cls-3" x1="146.43314" y1="-260.29603" x2="668.98505" y2="262.25588"/><line class="cls-3" x1="150.7091" y1="-264.53867" x2="673.26101" y2="258.01324"/><line class="cls-3" x1="154.98506" y1="-268.78131" x2="677.53697" y2="253.7706"/><line class="cls-3" x1="159.26102" y1="-273.02395" x2="681.81293" y2="249.52796"/><line class="cls-3" x1="163.53698" y1="-277.26659" x2="686.08889" y2="245.28532"/><line class="cls-3" x1="167.81294" y1="-281.50923" x2="690.36485" y2="241.04268"/><line class="cls-3" x1="172.0889" y1="-285.75188" x2="694.64081" y2="236.80004"/><line class="cls-3" x1="176.36486" y1="-289.99452" x2="698.91677" y2="232.5574"/><line class="cls-3" x1="180.64082" y1="-294.23716" x2="703.19273" y2="228.31475"/><line class="cls-3" x1="184.91678" y1="-298.4798" x2="707.46869" y2="224.07211"/><line class="cls-3" x1="189.19274" y1="-302.72244" x2="711.74465" y2="219.82947"/><line class="cls-3" x1="193.4687" y1="-306.96508" x2="716.02061" y2="215.58683"/><line class="cls-3" x1="197.74466" y1="-311.20772" x2="720.29657" y2="211.34419"/><line class="cls-3" x1="202.02062" y1="-315.45036" x2="724.57253" y2="207.10155"/><line class="cls-3" x1="206.29658" y1="-320.40011" x2="728.84849" y2="202.1518"/><line class="cls-3" x1="210.57254" y1="-324.64275" x2="733.12445" y2="197.90916"/><line class="cls-3" x1="214.8485" y1="-328.88539" x2="737.40041" y2="193.66652"/><line class="cls-3" x1="219.12446" y1="-333.12803" x2="741.67637" y2="189.42388"/><line class="cls-3" x1="223.40042" y1="-337.37067" x2="745.95233" y2="185.18124"/><line class="cls-3" x1="227.67638" y1="-341.61331" x2="750.22829" y2="180.9386"/><line class="cls-3" x1="231.95234" y1="-345.85595" x2="754.50425" y2="176.69596"/><line class="cls-3" x1="236.2283" y1="-350.09859" x2="758.78021" y2="172.45332"/><line class="cls-3" x1="240.50426" y1="-354.34123" x2="763.05617" y2="168.21068"/><line class="cls-3" x1="244.78022" y1="-358.58387" x2="767.33213" y2="163.96804"/><line class="cls-3" x1="249.05618" y1="-362.82651" x2="771.60809" y2="159.7254"/><line class="cls-3" x1="253.33214" y1="-367.06916" x2="775.88405" y2="155.48276"/><line class="cls-3" x1="257.6081" y1="-371.3118" x2="780.16001" y2="151.24012"/><line class="cls-3" x1="261.88406" y1="-375.55444" x2="784.43597" y2="146.99747"/><line class="cls-3" x1="266.16002" y1="-379.79708" x2="788.71193" y2="142.75483"/><line class="cls-3" x1="270.43598" y1="-384.03972" x2="792.98789" y2="138.51219"/><line class="cls-3" x1="274.71194" y1="-388.28236" x2="797.26385" y2="134.26955"/><line class="cls-3" x1="278.9879" y1="-392.525" x2="801.53981" y2="130.02691"/><line class="cls-3" x1="283.26386" y1="-396.76764" x2="805.81577" y2="125.78427"/><line class="cls-3" x1="287.53982" y1="-401.01028" x2="810.09173" y2="121.54163"/><line class="cls-3" x1="291.81578" y1="-405.25292" x2="814.36769" y2="117.29899"/><line class="cls-3" x1="296.09174" y1="-409.49556" x2="818.64365" y2="113.05635"/><line class="cls-3" x1="300.3677" y1="-413.7382" x2="822.91961" y2="108.81371"/><line class="cls-3" x1="304.64366" y1="-417.98084" x2="827.19557" y2="104.57107"/><line class="cls-3" x1="308.91962" y1="-422.93059" x2="831.47153" y2="99.62132"/><line class="cls-3" x1="313.19558" y1="-427.17323" x2="835.74749" y2="95.37868"/><line class="cls-3" x1="317.47154" y1="-431.41587" x2="840.02345" y2="91.13604"/><line class="cls-3" x1="321.7475" y1="-435.65851" x2="844.29941" y2="86.8934"/><line class="cls-3" x1="326.02345" y1="-439.90115" x2="848.57537" y2="82.65076"/><line class="cls-3" x1="330.29941" y1="-444.14379" x2="852.85133" y2="78.40812"/><line class="cls-3" x1="334.57537" y1="-448.38644" x2="857.12729" y2="74.16548"/><line class="cls-3" x1="338.85133" y1="-452.62908" x2="861.40325" y2="69.92284"/><line class="cls-3" x1="343.12729" y1="-456.87172" x2="865.67921" y2="65.68019"/><line class="cls-3" x1="347.40325" y1="-461.11436" x2="869.95517" y2="61.43755"/><line class="cls-3" x1="351.67921" y1="-465.357" x2="874.23113" y2="57.19491"/><line class="cls-3" x1="355.95517" y1="-469.59964" x2="878.50709" y2="52.95227"/><line class="cls-3" x1="360.23113" y1="-473.84228" x2="882.78305" y2="48.70963"/><line class="cls-3" x1="364.50709" y1="-478.08492" x2="887.059" y2="44.46699"/><line class="cls-3" x1="368.78305" y1="-482.32756" x2="891.33496" y2="40.22435"/><line class="cls-3" x1="373.05901" y1="-486.5702" x2="895.61092" y2="35.98171"/><line class="cls-3" x1="377.33497" y1="-490.81284" x2="899.88688" y2="31.73907"/><line class="cls-3" x1="381.61093" y1="-495.05548" x2="904.16284" y2="27.49643"/><line class="cls-3" x1="385.88689" y1="-499.29812" x2="908.4388" y2="23.25379"/><line class="cls-3" x1="390.16285" y1="-503.54076" x2="912.71476" y2="19.01115"/><line class="cls-3" x1="394.43881" y1="-507.7834" x2="916.99072" y2="14.76851"/></g><rect class="cls-4" width="378" height="224"/><rect class="cls-5" width="378" height="224"/><text class="cls-6" transform="translate(68.47534 192.33203)">ANYTHING<tspan class="cls-7" x="122.01465" y="0"> </tspan><tspan x="128.14844" y="0">YOU NEED!</tspan></text><text class="cls-8" transform="translate(141.51465 35.86426)">BRING</text><path class="cls-9" d="M89.05511,63.59408v90.22347h66.88978V63.59408Zm46.49432,87.76047h-26.099V136.18762h26.099Zm17.83272-16.20394H91.618V112.16269h61.76412Zm0-26.4448H91.618V67.051h61.76412Z"/><path class="cls-9" d="M261.09276,141.57954A9.38311,9.38311,0,0,1,254.1218,139a78.30469,78.30469,0,0,1-6.10457-5.76821c-.83593-.91361-1.09783-2.344-1.65993-3.52088a3.85251,3.85251,0,0,0-.82374-1.243c-2.48084-2.18513-3.60445-4.75639-2.569-8.07246a1.67966,1.67966,0,0,0-.40233-1.323c-1.96955-2.23868-2.33116-7.71982-.70943-10.242a3.504,3.504,0,0,0,.316-1.84c-.0234-1.86989-.51108-3.82646-.11141-5.58908a76.94174,76.94174,0,0,1,3.034-9.5239c.80411-2.17978,1.90562-4.23862,4.21481-5.30053a1.4511,1.4511,0,0,0,.54418-.895c1.21824-4.55631,4.38727-7.4346,8.358-9.53447a12.58355,12.58355,0,0,1,3.34842-.70415c1.50078-4.3603,8.21765-4.28765,11.25271-1.3075,1.72353-.86587,3.33839-1.73683,5.00984-2.48061a2.364,2.364,0,0,1,1.73644-.09223c3.528,1.64875,7.90564,1.76942,10.23925,5.61177a2.35116,2.35116,0,0,0,.8748.65817c.37147.21218.90153.26218,1.14772.5602,2.25778,2.7331,5.58335,4.38024,7.40831,7.5903,1.79777,3.16222,3.54634,6.329,3.91443,9.98833a9.39047,9.39047,0,0,0,1.23774,3.56667,12.79962,12.79962,0,0,1,1.06,5.25044,39.13437,39.13437,0,0,0,.27892,5.53713,17.98377,17.98377,0,0,1-1.273,9.81021,2.99185,2.99185,0,0,0-.39077,1.4804c.5849,2.83461-.81565,4.86618-2.55387,6.8115a4.27583,4.27583,0,0,0-.99266,1.57474,9.46132,9.46132,0,0,1-4.39673,5.56028,5.929,5.929,0,0,0-1.71377,1.57374,9.71544,9.71544,0,0,1-6.81913,4.17776,2.29891,2.29891,0,0,0-1.38459.76836c-2.25028,3.08705-8.517,4.73453-11.89167,2.95052a2.19322,2.19322,0,0,0-2.32079.03524,7.46578,7.46578,0,0,1-6.72316.19715C263.82691,144.54634,262.762,143.10175,261.09276,141.57954ZM285.1813,76.39273l-.55028.30266a5.09162,5.09162,0,0,1-.04841,1.87129,6.20653,6.20653,0,0,1-1.3422,1.50194,7.53593,7.53593,0,0,1-1.37367-1.503,3.8883,3.8883,0,0,1-.06493-1.596,2.50313,2.50313,0,0,0-2.09205-2.52212c-1.66354-.45862-4.2466.60257-4.40456,2.35561-.20053,2.22567-.08921,4.88792.98177,6.72356,1.59124,2.72735,6.17613,2.97837,8.91208,1.22861a1.80853,1.80853,0,0,1,1.59323-.09464c.38007.23716.76832,1.26.61016,1.42824-.87406.92954-1.85067,2.30642-2.90888,2.41748-3.223.33824-6.60672.64128-9.24952-2.01873-.12491-.12572-.37591-.12617-.71-.22832-1.62226,2.77721.31951,5.50451.02271,8.25021-.29113,2.69323.39113,5.49169.66109,8.40472,1.21448,0,2.33459-.02464,3.45308.00742.97945.02807,1.85117.48749,1.60376,1.52437a2.33913,2.33913,0,0,1-1.6533,1.26211c-1.20748.20217-2.47783-.00279-3.70919.10656-.40013.03553-1.06738.50327-1.08832.80919a31.06114,31.06114,0,0,0-.09069,5.86563,23.92882,23.92882,0,0,0,1.49538,4.56042c7.57083.32745,6.67462.85632,7.33583-5.1453.01-.09085-.07628-.19231-.11763-.28882l-.36355.31614c-.56409-.63181-1.56047-1.23638-1.60234-1.90109-.08736-1.3868,1.15916-1.39169,2.23024-1.38515,2.5229.0154,5.046.00494,7.61735.00494.03008-.58724-.08661-1.09178.10442-1.41374.32019-.53963.9159-1.39925,1.25261-1.338.57737.10505,1.51983.86907,1.47593,1.26376-.19445,1.74839.69845,2.46927,2.08418,3.14478a2.01371,2.01371,0,0,1,.54826,1.8398c-.10087.34985-1.1297.62947-1.71691.58671-.5966-.04344-1.14355-.71837-1.74367-.77329-2.12062-.19408-4.2547-.24105-6.38368-.3438q-.41317,1.9175-.82616,3.835c-.034.15816-.06782.31645-.09791.4754-.59294,3.13134-1.74986,4.10132-4.95,4.12492-1.65116.01218-3.30248.00214-5.07685.00214-.06085,3.189-.12909,6.19443-2.65539,8.15272L275.075,132.544a4.68831,4.68831,0,0,1,1.67085-.74915,6.83842,6.83842,0,0,1,2.04722.59575,12.43836,12.43836,0,0,1-.79657,1.85686,1.74324,1.74324,0,0,1-.97763.52953c-1.31984.37332-1.65267,1.22464-1.57062,2.53789a13.08479,13.08479,0,0,1-.36576,3.20032c-.29924,1.57115.01949,2.18239,1.64683,2.35738a9.52371,9.52371,0,0,0,6.711-1.91137,14.54026,14.54026,0,0,1-1.297-2.86187,2.41369,2.41369,0,0,1,.49459-2.04684c.84385-.637,1.71121-.07148,2.00414.87349.55174,1.77991,1.86591,1.69307,3.22588,1.43039a5.50556,5.50556,0,0,0,4.23264-3.16819,3.47136,3.47136,0,0,1,2.13413-1.97572,5.70953,5.70953,0,0,0,3.6093-4.432H286.73327a8.81432,8.81432,0,0,1,.67256,2.42464,2.09753,2.09753,0,0,1-.95189,1.57644c-.34448.169-1.16209-.28657-1.56307-.67546a2.92207,2.92207,0,0,1-.58449-1.48036,4.02529,4.02529,0,0,0-2.76947-3.40883c-.89479-.29584-1.48264-1.00532-.96127-2.02163a1.39589,1.39589,0,0,1,2.21147-.47279c2.82828,1.8259,5.90725.822,8.47094,1.03479a51.1878,51.1878,0,0,1-.79136-5.46035c-.02475-.51589.86913-1.07585,1.34184-1.6156a18.05665,18.05665,0,0,1,1.42732,1.62953c.15271.2175.0261.63022.02908.95389a4.32034,4.32034,0,0,0,4.50826,4.5359,5.21613,5.21613,0,0,1,.96933.009,1.72955,1.72955,0,0,0,2.1705-1.4245,5.66692,5.66692,0,0,0,.03177-2.76434,18.26624,18.26624,0,0,0-1.54566-3.19136c-.45589-.88186-.74239-1.78538.30936-2.397,1.07319-.62407,1.69484.05465,2.157.96822a8.34022,8.34022,0,0,0,.693.86581c-.06978-3.18319,1.62737-5.95785-.55569-8.61613-.14418-.17556-.02916-.58669.00633-.88334.20975-1.75311.546-3.50124.60027-5.25844a9.95039,9.95039,0,0,0-.77356-2.75306,26.35281,26.35281,0,0,1-3.47624,2.22417c-.51845.22771-1.31506-.17791-1.98557-.29642.13894-.66629.07063-1.51923.46419-1.95622.62961-.6991,1.70505-.99757,2.33164-1.69825.58562-.65487,1.30507-1.72325,1.14279-2.4172-.56344-2.40943-1.48474-4.73517-2.2699-7.09275l-.54774.01357c-1.15559,4.17936-5.25038,5.36211-7.63216,7.8014a20.859,20.859,0,0,1,.49656,3.01327c.02,1.14786.511,2.8351-1.37,2.88028-1.91259.04593-1.38834-1.64247-1.478-2.80148-.04317-.55821-.06117-1.11836-.09895-1.837-.86182.417-1.53391.73507-2.19983,1.0656-2.26823,1.12581-3.09375.97244-4.41006-1.11882a2.01605,2.01605,0,0,1,.06686-1.82783,1.67649,1.67649,0,0,1,1.64669-.21183c.93963.87893,1.69778.56482,2.5897.03988a24.38021,24.38021,0,0,0,2.29936-1.17332c2.84321-2.1219,6.29945-3.56369,7.6966-7.28311.80279-2.13716.71177-2.65024-1.54682-3.32469a2.75884,2.75884,0,0,1-1.65434-1.49277,11.95286,11.95286,0,0,0-2.55593-2.42217c-.59934-.52175-1.28984-.9457-1.85122-1.50247C286.68086,78.13144,285.94813,77.2449,285.1813,76.39273Zm-35.89885,53.6406c1.29077,2.28225,6.66728,7.36268,8.75555,8.06528a9.51319,9.51319,0,0,0,3.75245.35486,5.13648,5.13648,0,0,0,2.17778-1.14953c.93751-.65629,1.69421-2.36592,3.0285-1.0461,1.40462,1.38939-.28441,2.21848-1.05653,3.13674-.20735.2466-.58911.42531-.65672.69408-.1361.541-.3489,1.26528-.11062,1.662.9052,1.50721,2.48752,1.27728,3.9269,1.19391a2.75793,2.75793,0,0,0,2.80868-1.77365,11.71137,11.71137,0,0,0-.26-8.82685,3.81234,3.81234,0,0,0-3.67636-2.32793c-2.844-.19022-5.02054.39194-6.10953,3.26817-.0555.14656-.15812.35528-.27635.38482-.66.16495-1.3315.28359-1.99909.41805-.11232-.667-.47779-1.42459-.279-1.9804a13.8349,13.8349,0,0,1,1.53852-2.45345,6.61065,6.61065,0,0,0,.9234-1.67738c.53234-2.00294.96055-4.0335,1.43281-6.0525.12951-.55368.27359-1.10394.46378-1.86783-2.26905,0-4.30646.02029-6.34327-.00605-1.81365-.02344-3.704-.35724-4.36891,2.12553-.08821.32933-1.2882.70508-1.70779.50434a1.8077,1.8077,0,0,1-.666-1.66451,11.31754,11.31754,0,0,0,1.3476-5.40271c-.02177-.36753.79933-1.07725,1.25615-1.09852.45561-.02122,1.073.53891,1.37562,1.00313a4.64425,4.64425,0,0,1,.26955,1.70017c.573,0,1.10169-.00046,1.6304.00008,2.26507.00229,4.53163-.04591,6.79482.02069,2.61448.07694,3.62373,1.31476,3.12962,3.87991a27.10664,27.10664,0,0,1-1.05239,3.21712c-.29169.89025-.56665,1.786-.85256,2.69046,4.43819,1.04979,7.44181-.82523,7.67831-5.18995.22076-4.07431-.85826-7.84333-1.96159-11.38629L259.018,108.96373a2.9825,2.9825,0,0,1-.14466,1.32109c-.27971.4961-.8531,1.1232-1.31507,1.13637-.46.0131-1.33261-.6556-1.341-1.04023-.03186-1.46274-.22151-3.19641.46881-4.32794.78317-1.28371,2.51784-.53,3.73622-.0663a20.89473,20.89473,0,0,0,9.04144,1.23757c.4242-.02991,1.12942-.18891,1.20313-.43707.72155-2.42938,2.12635-4.66973,1.40707-7.47145-.47844-1.86359-.2847-3.89678-.42271-5.85188-.07753-1.09836-.21784-2.1923-.33739-3.36182-1.27264,0-2.29522.05078-3.31112-.01-2.504-.1499-4.90531-.195-6.5705,2.2628-.23086.34074-1.37075.06559-2.08982.07556a5.50606,5.50606,0,0,1,.183-2.00036,10.34545,10.34545,0,0,1,1.79014-1.95472c-.56065-.45366-1.03848-.80363-1.47362-1.20043-.7798-.71108-1.362-1.55458-.41129-2.47734.96267-.93432,1.83272-.29961,2.46326.50585a5.03466,5.03466,0,0,0,4.83725,1.95956c1.06792-.107,2.15691.01349,3.23319-.037A1.61465,1.61465,0,0,0,271.078,86.843c2.09651-2.89618,2.59081-5.92992.75159-9.18765a5.16325,5.16325,0,0,0-6.05281-2.51529c-1.20721.35212-1.65418.92639-.82886,2.09026a23.32916,23.32916,0,0,1,2.18829,3.38742c.24847.52473-.10743,1.33565-.18885,2.0166a5.55594,5.55594,0,0,1-2.08251-.508,7.618,7.618,0,0,1-1.38232-1.96827c-1.14523-1.71337-3.08794-2.37945-4.68652-1.11072a42.34761,42.34761,0,0,0-5.51805,5.55826,2.5743,2.5743,0,0,0,.01583,2.30023,12.4235,12.4235,0,0,1,1.74488,6.46281,38.86848,38.86848,0,0,1-.54849,3.88c2.55342,0,5.02083.12834,7.46708-.04389a3.79419,3.79419,0,0,1,3.64119,1.87921c.31282.46476.04853,1.318.04728,1.99411a8.86975,8.86975,0,0,1-2.02109-.07118c-.47361-.1218-.88537-.89351-1.27757-.85784-3.20284.29132-6.85261-1.37641-9.39246,2.11941a2.12363,2.12363,0,0,1-2.05675.19747c-.88013-.58241-.57046-1.49531.132-2.20107a10.50178,10.50178,0,0,0,1.23631-1.274,2.1099,2.1099,0,0,0,.39695-1.24571c-.12645-1.82456-.28149-3.65136-.54111-5.46087a30.29916,30.29916,0,0,0-.79229-3.17512c-3.86157.95769-8.09421,14.21449-5.91552,17.74032.39478-.11894.80651-.234,1.21251-.3667,3.55927-1.163,3.75968-1.01043,3.73292,2.736-.00718,1.00516.0348,2.10068-1.26036,2.24925-1.32356.15183-1.49906-.93377-1.66639-1.92249-.01209-.07143-.15267-.12112-.23049-.17868-3.66741,1.09963-3.34782.59576-3.42652,4.60264-.00212.10782.00328.21589-.00141.32355a3.36466,3.36466,0,0,0,1.84086,3.47907c1.32877.68458,1.28861,1.619.55369,2.805a3.90966,3.90966,0,0,0,.92818,5.45675c1.80043,1.53855,5.71832,1.70719,7.87133.262.849-.56987,1.62386-.75174,2.24188.14011a1.40433,1.40433,0,0,1-.61232,2.18526,11.65872,11.65872,0,0,1-7.31565,1.41209Z"/><path class="cls-9" d="M195.67687,121.62525V110.90552H185.0382V106.426h10.63867V95.78638h4.5332V106.426h10.63965v4.47949H200.21008v10.71973Z"/></svg>