<svg id="圖層_1" data-name="圖層 1" xmlns="http://www.w3.org/2000/svg" xmlns:xlink="http://www.w3.org/1999/xlink" viewBox="0 0 395 244"><defs><style>.cls-1,.cls-3,.cls-9{fill:none;}.cls-2{clip-path:url(#clip-path);}.cls-3{stroke:#333;stroke-width:2px;}.cls-3,.cls-9{stroke-miterlimit:10;}.cls-4{fill:#f9d021;}.cls-5,.cls-7{fill:#333;}.cls-5{opacity:0.09;}.cls-6{font-size:23.61417px;}.cls-6,.cls-8{fill:#fff;}.cls-6,.cls-7{font-family:ArialMT, Arial;}.cls-7{font-size:26.87078px;letter-spacing:0.2em;}.cls-9{stroke:#1a1a1a;stroke-width:3px;}.cls-10{fill:#1a1a1a;}</style><clipPath id="clip-path"><rect class="cls-1" x="17" y="20" width="378" height="224"/></clipPath></defs><title>HOW MUCH</title><g class="cls-2"><line class="cls-3" x1="-358.13012" y1="244.57821" x2="164.42179" y2="767.13012"/><line class="cls-3" x1="-353.85416" y1="240.33557" x2="168.69775" y2="762.88748"/><line class="cls-3" x1="-349.5782" y1="236.09293" x2="172.97371" y2="758.64484"/><line class="cls-3" x1="-345.30224" y1="231.85029" x2="177.24967" y2="754.4022"/><line class="cls-3" x1="-341.02628" y1="227.60765" x2="181.52563" y2="750.15956"/><line class="cls-3" x1="-336.75032" y1="223.36501" x2="185.80159" y2="745.91692"/><line class="cls-3" x1="-332.47436" y1="219.12237" x2="190.07755" y2="741.67428"/><line class="cls-3" x1="-328.1984" y1="214.87973" x2="194.35351" y2="737.43164"/><line class="cls-3" x1="-323.92244" y1="210.63708" x2="198.62947" y2="733.189"/><line class="cls-3" x1="-319.64648" y1="206.39444" x2="202.90543" y2="728.94636"/><line class="cls-3" x1="-315.37052" y1="202.1518" x2="207.18139" y2="724.70371"/><line class="cls-3" x1="-311.09456" y1="197.90916" x2="211.45735" y2="720.46107"/><line class="cls-3" x1="-306.8186" y1="192.95942" x2="215.73331" y2="715.51133"/><line class="cls-3" x1="-302.54264" y1="188.71677" x2="220.00927" y2="711.26869"/><line class="cls-3" x1="-298.26668" y1="184.47413" x2="224.28523" y2="707.02605"/><line class="cls-3" x1="-293.99072" y1="180.23149" x2="228.56119" y2="702.7834"/><line class="cls-3" x1="-289.71476" y1="175.98885" x2="232.83715" y2="698.54076"/><line class="cls-3" x1="-285.4388" y1="171.74621" x2="237.11311" y2="694.29812"/><line class="cls-3" x1="-281.16284" y1="167.50357" x2="241.38907" y2="690.05548"/><line class="cls-3" x1="-276.88688" y1="163.26093" x2="245.66503" y2="685.81284"/><line class="cls-3" x1="-272.61092" y1="159.01829" x2="249.94099" y2="681.5702"/><line class="cls-3" x1="-268.33496" y1="154.77565" x2="254.21695" y2="677.32756"/><line class="cls-3" x1="-264.059" y1="150.53301" x2="258.49291" y2="673.08492"/><line class="cls-3" x1="-259.78305" y1="146.29037" x2="262.76887" y2="668.84228"/><line class="cls-3" x1="-255.50709" y1="142.04773" x2="267.04483" y2="664.59964"/><line class="cls-3" x1="-251.23113" y1="137.80509" x2="271.32079" y2="660.357"/><line class="cls-3" x1="-246.95517" y1="133.56245" x2="275.59675" y2="656.11436"/><line class="cls-3" x1="-242.67921" y1="129.31981" x2="279.87271" y2="651.87172"/><line class="cls-3" x1="-238.40325" y1="125.07716" x2="284.14867" y2="647.62908"/><line class="cls-3" x1="-234.12729" y1="120.83452" x2="288.42463" y2="643.38644"/><line class="cls-3" x1="-229.85133" y1="116.59188" x2="292.70059" y2="639.14379"/><line class="cls-3" x1="-225.57537" y1="112.34924" x2="296.97655" y2="634.90115"/><line class="cls-3" x1="-221.29941" y1="108.1066" x2="301.2525" y2="630.65851"/><line class="cls-3" x1="-217.02345" y1="103.86396" x2="305.52846" y2="626.41587"/><line class="cls-3" x1="-212.74749" y1="99.62132" x2="309.80442" y2="622.17323"/><line class="cls-3" x1="-208.47153" y1="95.37868" x2="314.08038" y2="617.93059"/><line class="cls-3" x1="-204.19557" y1="90.42893" x2="318.35634" y2="612.98084"/><line class="cls-3" x1="-199.91961" y1="86.18629" x2="322.6323" y2="608.7382"/><line class="cls-3" x1="-195.64365" y1="81.94365" x2="326.90826" y2="604.49556"/><line class="cls-3" x1="-191.36769" y1="77.70101" x2="331.18422" y2="600.25292"/><line class="cls-3" x1="-187.09173" y1="73.45837" x2="335.46018" y2="596.01028"/><line class="cls-3" x1="-182.81577" y1="69.21573" x2="339.73614" y2="591.76764"/><line class="cls-3" x1="-178.53981" y1="64.97309" x2="344.0121" y2="587.525"/><line class="cls-3" x1="-174.26385" y1="60.73045" x2="348.28806" y2="583.28236"/><line class="cls-3" x1="-169.98789" y1="56.48781" x2="352.56402" y2="579.03972"/><line class="cls-3" x1="-165.71193" y1="52.24517" x2="356.83998" y2="574.79708"/><line class="cls-3" x1="-161.43597" y1="48.00253" x2="361.11594" y2="570.55444"/><line class="cls-3" x1="-157.16001" y1="43.75988" x2="365.3919" y2="566.3118"/><line class="cls-3" x1="-152.88405" y1="39.51724" x2="369.66786" y2="562.06916"/><line class="cls-3" x1="-148.60809" y1="35.2746" x2="373.94382" y2="557.82651"/><line class="cls-3" x1="-144.33213" y1="31.03196" x2="378.21978" y2="553.58387"/><line class="cls-3" x1="-140.05617" y1="26.78932" x2="382.49574" y2="549.34123"/><line class="cls-3" x1="-135.78021" y1="22.54668" x2="386.7717" y2="545.09859"/><line class="cls-3" x1="-131.50425" y1="18.30404" x2="391.04766" y2="540.85595"/><line class="cls-3" x1="-127.22829" y1="14.0614" x2="395.32362" y2="536.61331"/><line class="cls-3" x1="-122.95233" y1="9.81876" x2="399.59958" y2="532.37067"/><line class="cls-3" x1="-118.67637" y1="5.57612" x2="403.87554" y2="528.12803"/><line class="cls-3" x1="-114.40041" y1="1.33348" x2="408.1515" y2="523.88539"/><line class="cls-3" x1="-110.12445" y1="-2.90916" x2="412.42746" y2="519.64275"/><line class="cls-3" x1="-105.84849" y1="-7.1518" x2="416.70342" y2="515.40011"/><line class="cls-3" x1="-101.57253" y1="-12.10155" x2="420.97938" y2="510.45036"/><line class="cls-3" x1="-97.29657" y1="-16.34419" x2="425.25534" y2="506.20772"/><line class="cls-3" x1="-93.02061" y1="-20.58683" x2="429.5313" y2="501.96508"/><line class="cls-3" x1="-88.74465" y1="-24.82947" x2="433.80726" y2="497.72244"/><line class="cls-3" x1="-84.46869" y1="-29.07211" x2="438.08322" y2="493.4798"/><line class="cls-3" x1="-80.19273" y1="-33.31475" x2="442.35918" y2="489.23716"/><line class="cls-3" x1="-75.91677" y1="-37.5574" x2="446.63514" y2="484.99452"/><line class="cls-3" x1="-71.64081" y1="-41.80004" x2="450.9111" y2="480.75188"/><line class="cls-3" x1="-67.36485" y1="-46.04268" x2="455.18706" y2="476.50923"/><line class="cls-3" x1="-63.08889" y1="-50.28532" x2="459.46302" y2="472.26659"/><line class="cls-3" x1="-58.81293" y1="-54.52796" x2="463.73898" y2="468.02395"/><line class="cls-3" x1="-54.53697" y1="-58.7706" x2="468.01494" y2="463.78131"/><line class="cls-3" x1="-50.26101" y1="-63.01324" x2="472.2909" y2="459.53867"/><line class="cls-3" x1="-45.98505" y1="-67.25588" x2="476.56686" y2="455.29603"/><line class="cls-3" x1="-41.70909" y1="-71.49852" x2="480.84282" y2="451.05339"/><line class="cls-3" x1="-37.43313" y1="-75.74116" x2="485.11878" y2="446.81075"/><line class="cls-3" x1="-33.15717" y1="-79.9838" x2="489.39474" y2="442.56811"/><line class="cls-3" x1="-28.88121" y1="-84.22644" x2="493.6707" y2="438.32547"/><line class="cls-3" x1="-24.60525" y1="-88.46908" x2="497.94666" y2="434.08283"/><line class="cls-3" x1="-20.32929" y1="-92.71172" x2="502.22262" y2="429.84019"/><line class="cls-3" x1="-16.05333" y1="-96.95436" x2="506.49858" y2="425.59755"/><line class="cls-3" x1="-11.77737" y1="-101.19701" x2="510.77454" y2="421.35491"/><line class="cls-3" x1="-7.50141" y1="-105.43965" x2="515.0505" y2="417.11227"/><line class="cls-3" x1="-3.22545" y1="-109.68229" x2="519.32646" y2="412.86962"/><line class="cls-3" x1="1.05051" y1="-114.63203" x2="523.60242" y2="407.91988"/><line class="cls-3" x1="5.32647" y1="-118.87468" x2="527.87838" y2="403.67724"/><line class="cls-3" x1="9.60243" y1="-123.11732" x2="532.15434" y2="399.4346"/><line class="cls-3" x1="13.87839" y1="-127.35996" x2="536.4303" y2="395.19195"/><line class="cls-3" x1="18.15435" y1="-131.6026" x2="540.70626" y2="390.94931"/><line class="cls-3" x1="22.43031" y1="-135.84524" x2="544.98222" y2="386.70667"/><line class="cls-3" x1="26.70627" y1="-140.08788" x2="549.25818" y2="382.46403"/><line class="cls-3" x1="30.98223" y1="-144.33052" x2="553.53414" y2="378.22139"/><line class="cls-3" x1="35.25818" y1="-148.57316" x2="557.8101" y2="373.97875"/><line class="cls-3" x1="39.53414" y1="-152.8158" x2="562.08606" y2="369.73611"/><line class="cls-3" x1="43.8101" y1="-157.05844" x2="566.36202" y2="365.49347"/><line class="cls-3" x1="48.08606" y1="-161.30108" x2="570.63798" y2="361.25083"/><line class="cls-3" x1="52.36202" y1="-166.25083" x2="574.91394" y2="356.30108"/><line class="cls-3" x1="56.63798" y1="-170.49347" x2="579.1899" y2="352.05844"/><line class="cls-3" x1="60.91394" y1="-174.73611" x2="583.46586" y2="347.8158"/><line class="cls-3" x1="65.1899" y1="-178.97875" x2="587.74182" y2="343.57316"/><line class="cls-3" x1="69.46586" y1="-183.22139" x2="592.01777" y2="339.33052"/><line class="cls-3" x1="73.74182" y1="-187.46403" x2="596.29373" y2="335.08788"/><line class="cls-3" x1="78.01778" y1="-191.70667" x2="600.56969" y2="330.84524"/><line class="cls-3" x1="82.29374" y1="-195.94931" x2="604.84565" y2="326.6026"/><line class="cls-3" x1="86.5697" y1="-200.19195" x2="609.12161" y2="322.35996"/><line class="cls-3" x1="90.84566" y1="-204.4346" x2="613.39757" y2="318.11732"/><line class="cls-3" x1="95.12162" y1="-208.67724" x2="617.67353" y2="313.87468"/><line class="cls-3" x1="99.39758" y1="-212.91988" x2="621.94949" y2="309.63203"/><line class="cls-3" x1="103.67354" y1="-217.86962" x2="626.22545" y2="304.68229"/><line class="cls-3" x1="107.9495" y1="-222.11227" x2="630.50141" y2="300.43965"/><line class="cls-3" x1="112.22546" y1="-226.35491" x2="634.77737" y2="296.19701"/><line class="cls-3" x1="116.50142" y1="-230.59755" x2="639.05333" y2="291.95436"/><line class="cls-3" x1="120.77738" y1="-234.84019" x2="643.32929" y2="287.71172"/><line class="cls-3" x1="125.05334" y1="-239.08283" x2="647.60525" y2="283.46908"/><line class="cls-3" x1="129.3293" y1="-243.32547" x2="651.88121" y2="279.22644"/><line class="cls-3" x1="133.60526" y1="-247.56811" x2="656.15717" y2="274.9838"/><line class="cls-3" x1="137.88122" y1="-251.81075" x2="660.43313" y2="270.74116"/><line class="cls-3" x1="142.15718" y1="-256.05339" x2="664.70909" y2="266.49852"/><line class="cls-3" x1="146.43314" y1="-260.29603" x2="668.98505" y2="262.25588"/><line class="cls-3" x1="150.7091" y1="-264.53867" x2="673.26101" y2="258.01324"/><line class="cls-3" x1="154.98506" y1="-268.78131" x2="677.53697" y2="253.7706"/><line class="cls-3" x1="159.26102" y1="-273.02395" x2="681.81293" y2="249.52796"/><line class="cls-3" x1="163.53698" y1="-277.26659" x2="686.08889" y2="245.28532"/><line class="cls-3" x1="167.81294" y1="-281.50923" x2="690.36485" y2="241.04268"/><line class="cls-3" x1="172.0889" y1="-285.75188" x2="694.64081" y2="236.80004"/><line class="cls-3" x1="176.36486" y1="-289.99452" x2="698.91677" y2="232.5574"/><line class="cls-3" x1="180.64082" y1="-294.23716" x2="703.19273" y2="228.31475"/><line class="cls-3" x1="184.91678" y1="-298.4798" x2="707.46869" y2="224.07211"/><line class="cls-3" x1="189.19274" y1="-302.72244" x2="711.74465" y2="219.82947"/><line class="cls-3" x1="193.4687" y1="-306.96508" x2="716.02061" y2="215.58683"/><line class="cls-3" x1="197.74466" y1="-311.20772" x2="720.29657" y2="211.34419"/><line class="cls-3" x1="202.02062" y1="-315.45036" x2="724.57253" y2="207.10155"/><line class="cls-3" x1="206.29658" y1="-320.40011" x2="728.84849" y2="202.1518"/><line class="cls-3" x1="210.57254" y1="-324.64275" x2="733.12445" y2="197.90916"/><line class="cls-3" x1="214.8485" y1="-328.88539" x2="737.40041" y2="193.66652"/><line class="cls-3" x1="219.12446" y1="-333.12803" x2="741.67637" y2="189.42388"/><line class="cls-3" x1="223.40042" y1="-337.37067" x2="745.95233" y2="185.18124"/><line class="cls-3" x1="227.67638" y1="-341.61331" x2="750.22829" y2="180.9386"/><line class="cls-3" x1="231.95234" y1="-345.85595" x2="754.50425" y2="176.69596"/><line class="cls-3" x1="236.2283" y1="-350.09859" x2="758.78021" y2="172.45332"/><line class="cls-3" x1="240.50426" y1="-354.34123" x2="763.05617" y2="168.21068"/><line class="cls-3" x1="244.78022" y1="-358.58387" x2="767.33213" y2="163.96804"/><line class="cls-3" x1="249.05618" y1="-362.82651" x2="771.60809" y2="159.7254"/><line class="cls-3" x1="253.33214" y1="-367.06916" x2="775.88405" y2="155.48276"/><line class="cls-3" x1="257.6081" y1="-371.3118" x2="780.16001" y2="151.24012"/><line class="cls-3" x1="261.88406" y1="-375.55444" x2="784.43597" y2="146.99747"/><line class="cls-3" x1="266.16002" y1="-379.79708" x2="788.71193" y2="142.75483"/><line class="cls-3" x1="270.43598" y1="-384.03972" x2="792.98789" y2="138.51219"/><line class="cls-3" x1="274.71194" y1="-388.28236" x2="797.26385" y2="134.26955"/><line class="cls-3" x1="278.9879" y1="-392.525" x2="801.53981" y2="130.02691"/><line class="cls-3" x1="283.26386" y1="-396.76764" x2="805.81577" y2="125.78427"/><line class="cls-3" x1="287.53982" y1="-401.01028" x2="810.09173" y2="121.54163"/><line class="cls-3" x1="291.81578" y1="-405.25292" x2="814.36769" y2="117.29899"/><line class="cls-3" x1="296.09174" y1="-409.49556" x2="818.64365" y2="113.05635"/><line class="cls-3" x1="300.3677" y1="-413.7382" x2="822.91961" y2="108.81371"/><line class="cls-3" x1="304.64366" y1="-417.98084" x2="827.19557" y2="104.57107"/><line class="cls-3" x1="308.91962" y1="-422.93059" x2="831.47153" y2="99.62132"/><line class="cls-3" x1="313.19558" y1="-427.17323" x2="835.74749" y2="95.37868"/><line class="cls-3" x1="317.47154" y1="-431.41587" x2="840.02345" y2="91.13604"/><line class="cls-3" x1="321.7475" y1="-435.65851" x2="844.29941" y2="86.8934"/><line class="cls-3" x1="326.02345" y1="-439.90115" x2="848.57537" y2="82.65076"/><line class="cls-3" x1="330.29941" y1="-444.14379" x2="852.85133" y2="78.40812"/><line class="cls-3" x1="334.57537" y1="-448.38644" x2="857.12729" y2="74.16548"/><line class="cls-3" x1="338.85133" y1="-452.62908" x2="861.40325" y2="69.92284"/><line class="cls-3" x1="343.12729" y1="-456.87172" x2="865.67921" y2="65.68019"/><line class="cls-3" x1="347.40325" y1="-461.11436" x2="869.95517" y2="61.43755"/><line class="cls-3" x1="351.67921" y1="-465.357" x2="874.23113" y2="57.19491"/><line class="cls-3" x1="355.95517" y1="-469.59964" x2="878.50709" y2="52.95227"/><line class="cls-3" x1="360.23113" y1="-473.84228" x2="882.78305" y2="48.70963"/><line class="cls-3" x1="364.50709" y1="-478.08492" x2="887.059" y2="44.46699"/><line class="cls-3" x1="368.78305" y1="-482.32756" x2="891.33496" y2="40.22435"/><line class="cls-3" x1="373.05901" y1="-486.5702" x2="895.61092" y2="35.98171"/><line class="cls-3" x1="377.33497" y1="-490.81284" x2="899.88688" y2="31.73907"/><line class="cls-3" x1="381.61093" y1="-495.05548" x2="904.16284" y2="27.49643"/><line class="cls-3" x1="385.88689" y1="-499.29812" x2="908.4388" y2="23.25379"/><line class="cls-3" x1="390.16285" y1="-503.54076" x2="912.71476" y2="19.01115"/><line class="cls-3" x1="394.43881" y1="-507.7834" x2="916.99072" y2="14.76851"/></g><rect class="cls-4" width="378" height="224"/><rect class="cls-5" width="378" height="224"/><text class="cls-6" transform="translate(147.63745 192.33203)">FREE!!</text><text class="cls-7" transform="translate(99.13672 35.86426)">HOW MUCH</text><path class="cls-8" d="M133.64416,133.36442v-5.07812a18.7542,18.7542,0,0,1-6.19238-1.707,10.78916,10.78916,0,0,1-4.11914-3.96387,14.17329,14.17329,0,0,1-2.01758-6.68652l5.10645-.96a12.88217,12.88217,0,0,0,2.08789,6.00977,7.40186,7.40186,0,0,0,5.13477,3.01855v-16.166a21.1937,21.1937,0,0,1-6.4043-2.42578,9.3792,9.3792,0,0,1-3.73828-3.75293A11.95294,11.95294,0,0,1,126.027,87.43375q2.56641-2.25732,7.61719-2.76465V82.24235h2.99023V84.6691a12.54063,12.54063,0,0,1,7.02539,2.59473,11.54,11.54,0,0,1,4.00586,7.58984l-5.24707.79a8.70252,8.70252,0,0,0-1.876-4.585,6.92572,6.92572,0,0,0-3.9082-2.10156v14.64258a40.28923,40.28923,0,0,1,5.07813,1.49512,12.54815,12.54815,0,0,1,3.86523,2.53906,10.22444,10.22444,0,0,1,2.2998,3.55469,13.07329,13.07329,0,0,1-2.55371,13.26074,12.321,12.321,0,0,1-8.68945,3.78027v5.13477Zm0-44.46387a7.52482,7.52482,0,0,0-4.66895,2.37012,7.04967,7.04967,0,0,0-.25391,8.88672,9.994,9.994,0,0,0,4.92285,2.793Zm2.99023,35.09668a7.52537,7.52537,0,0,0,4.89551-2.56738,7.95471,7.95471,0,0,0,1.93262-5.44434,6.8234,6.8234,0,0,0-1.36816-4.44434q-1.36963-1.67725-5.46-3.00391Z"/><line class="cls-9" x1="202.58116" y1="74.35237" x2="182.55317" y2="141.25439"/><path class="cls-10" d="M251.14425,114.17024h-2.67206c0,.358,0,.68238,0,1.00678q-.00093,12.92082-.00724,25.84164a5.2213,5.2213,0,0,1-.13264,1.36919,3.25951,3.25951,0,0,1-6.39554-.92283c-.01533-4.1787-.00583-8.3575-.00584-12.53625q0-18.61212-.02121-37.22419a1.76518,1.76518,0,0,0-.5042-1.10467q-7.12114-7.18129-14.2857-14.3195a3.37289,3.37289,0,0,1-1.1675-2.09776,2.96154,2.96154,0,0,1,1.67093-3.02436,2.90761,2.90761,0,0,1,3.402.59007c1.73956,1.70433,3.45085,3.43752,5.17348,5.15912,2.97381,2.972,5.93889,5.95289,8.93506,8.9022a1.78712,1.78712,0,0,0,1.11746.4656c2.38349.04061,4.76822.00339,7.15213.02921a1.60975,1.60975,0,0,0,1.26638-.54812q6.84044-6.9184,13.7031-13.81483a3.05194,3.05194,0,0,1,3.05661-.98661,2.97447,2.97447,0,0,1,1.58014,4.77524,8.14563,8.14563,0,0,1-.58444.6107q-7.119,7.12955-14.24665,14.25042a1.54844,1.54844,0,0,0-.50012,1.20692q.02919,24.53412.02534,49.06827a5.75136,5.75136,0,0,1-.16266,1.594,3.25484,3.25484,0,0,1-6.36552-.99853q-.02487-9.34447-.02315-18.689-.004-3.88392-.00816-7.76785C251.144,114.754,251.14425,114.50288,251.14425,114.17024Z"/><path class="cls-10" d="M243.95385,79.10419a5.83271,5.83271,0,0,1,11.665.07708,5.83273,5.83273,0,1,1-11.665-.07708Z"/></svg>