<?xml version="1.0" encoding="utf-8"?>
<!-- Generator: Adobe Illustrator 21.0.0, SVG Export Plug-In . SVG Version: 6.00 Build 0)  -->
<svg version="1.1" id="圖層_1" xmlns="http://www.w3.org/2000/svg" xmlns:xlink="http://www.w3.org/1999/xlink" x="0px" y="0px"
	 viewBox="0 0 217 108" style="enable-background:new 0 0 217 108;" xml:space="preserve">
<style type="text/css">
	.st0{fill:#333333;}
</style>
<polygon class="st0" points="11.5,95 11.5,11.5 204,11.5 204,0 0,0 0,95 "/>
<polygon class="st0" points="204,12.5 215.5,12.5 215.5,64.9 215.5,106.5 12.5,106.5 12.5,95 11.5,95 11.5,107.5 216.5,107.5 
	216.5,64.9 216.5,11.5 204,11.5 "/>
<g id="XMLID_1_">
	<g>
		<path class="st0" d="M97.8,70.4l-0.4,0.5c0,0,0-0.1,0-0.1C97.5,70.5,97.6,70.4,97.8,70.4z"/>
		<path class="st0" d="M108.6,67.2c0.4,0,0.8,0.3,0.8,0.8c0,0.4-0.3,0.8-0.8,0.8s-0.8-0.3-0.8-0.8C107.8,67.5,108.2,67.2,108.6,67.2
			z"/>
		<path class="st0" d="M112.1,80.2c0.4,0,0.8,0.4,0.8,0.8c0,0.5-0.4,0.8-0.8,0.8h-7c-0.4,0-0.8-0.4-0.8-0.8c0-0.4,0.4-0.8,0.8-0.8
			h0.2h6.5H112.1z"/>
		<path class="st0" d="M204,12.4v82.5H12.5V12.4H204z M176.3,63.5v-0.3H40.1v0.3H176.3z M165.3,71.2v-3.7H165v-1.2h-1v1.2h-0.2v3.7
			h0.5V79l-8.5-10.4c-0.1-0.1-0.2-0.1-0.3-0.1c-0.1,0-0.2,0.1-0.2,0.2v10.9c0,0.1,0.1,0.3,0.3,0.3c0.1,0,0.3-0.1,0.3-0.3V69.5
			l8.5,10.4c0,0.1,0.1,0.1,0.2,0.1c0,0,0.1,0,0.1,0c0.1,0,0.2-0.1,0.2-0.2v-8.5H165.3z M165.1,59.8V46.3h-1.7v10.6l-7.1-10.6h-1.8
			v13.5h1.7V49.1l7.1,10.6H165.1z M152.1,53c0-1.4-0.3-2.6-0.8-3.6c-0.5-1.1-1.3-1.9-2.3-2.5c-1-0.6-2.1-0.9-3.4-0.9
			c-1.9,0-3.5,0.6-4.7,1.9c-1.2,1.3-1.8,3-1.8,5.3c0,1.2,0.3,2.3,0.8,3.4c0.5,1.1,1.3,1.9,2.3,2.5c1,0.6,2.1,0.9,3.4,0.9
			c1.2,0,2.3-0.3,3.3-0.8c1-0.6,1.8-1.4,2.3-2.5C151.9,55.6,152.1,54.4,152.1,53z M152.7,74c0-3.6-2.9-6.6-6.6-6.6
			c-3.6,0-6.6,2.9-6.6,6.6c0,3.6,2.9,6.6,6.6,6.6C149.7,80.6,152.7,77.6,152.7,74z M148.3,25.2v-1.6h-10.7v1.6h4.4v11.9h1.8V25.2
			H148.3z M136.8,59.8V46.3H135v5.5h-7v-5.5h-1.8v13.5h1.8v-6.4h7v6.4H136.8z M135.9,35.1c0.4-0.7,0.6-1.7,0.6-3
			c0-1.5-0.4-2.8-1.3-3.6c-0.9-0.9-1.9-1.3-3.3-1.3c-1.2,0-2.2,0.4-3.1,1.1c-1,0.9-1.5,2.2-1.5,4c0,1.6,0.4,2.9,1.3,3.8
			c0.8,0.9,1.9,1.3,3.3,1.3c0.9,0,1.6-0.2,2.4-0.6S135.5,35.8,135.9,35.1z M135.8,81.1V67.9h-0.6v-0.4H127v2h0.4
			c0.2,0,0.4,0.2,0.4,0.4c0,0.2-0.2,0.4-0.4,0.4H127v1.6h0.4c0.2,0,0.4,0.2,0.4,0.4c0,0.2-0.2,0.4-0.4,0.4H127c0,0,0,1,0,2.3h0.4
			c0.2,0,0.4,0.2,0.4,0.4s-0.2,0.4-0.4,0.4H127c0,0.7,0,1.5,0,2.2h0.4c0.2,0,0.4,0.2,0.4,0.4c0,0.2-0.2,0.4-0.4,0.4H127
			c0,1,0,1.7,0,1.7h0.4v0.6H135.8z M127.7,69.9c0-0.1-0.1-0.3-0.3-0.3h-0.8c-0.1,0-0.3,0.1-0.3,0.3c0,0.1,0.1,0.3,0.3,0.3h0.8
			C127.5,70.1,127.7,70,127.7,69.9z M127.7,72.3c0-0.1-0.1-0.3-0.3-0.3h-0.8c-0.1,0-0.3,0.1-0.3,0.3c0,0.1,0.1,0.3,0.3,0.3h0.8
			C127.5,72.5,127.7,72.4,127.7,72.3z M127.7,75.3c0-0.1-0.1-0.3-0.3-0.3h-0.8c-0.1,0-0.3,0.1-0.3,0.3s0.1,0.3,0.3,0.3h0.8
			C127.5,75.6,127.7,75.5,127.7,75.3z M127.7,78.3c0-0.1-0.1-0.3-0.3-0.3h-0.8c-0.1,0-0.3,0.1-0.3,0.3c0,0.1,0.1,0.3,0.3,0.3h0.8
			C127.5,78.6,127.7,78.5,127.7,78.3z M123.5,69.1l2.3-0.7l-2.3-0.7h-10.2v1.5L123.5,69.1L123.5,69.1z M125,37.1V23.6h-1.8v13.5H125
			z M124.3,47.8v-1.6h-10.7v1.6h4.4v11.9h1.8V47.8H124.3z M121.4,37.1l-5.5-13.5H114l-5.2,13.5h1.9l1.5-4.1h5.6l1.6,4.1H121.4z
			 M119.8,79.6V69.4h-1.5v10.2l0.7,2.3L119.8,79.6z M114.6,59.8l-5.5-13.5h-1.9L102,59.8h1.9l1.5-4.1h5.6l1.6,4.1H114.6z M113.1,81
			c0-0.6-0.5-1.1-1.1-1.1h-0.2l-3.2-11c0.5-0.1,0.9-0.5,0.9-1c0-0.6-0.4-1-1-1c-0.6,0-1,0.5-1,1c0,0.5,0.4,0.9,0.9,1l-3.2,11h-0.2
			c-0.6,0-1.1,0.5-1.1,1.1c0,0.6,0.5,1.1,1.1,1.1h7C112.7,82,113.1,81.6,113.1,81z M103.8,33.3c0-0.8-0.2-1.6-0.7-2.1
			c-0.4-0.6-1.1-1-1.9-1.3c0.7-0.3,1.2-0.6,1.5-1.1c0.3-0.5,0.5-1,0.5-1.6c0-1-0.4-1.8-1.1-2.5c-0.7-0.7-1.7-1-2.9-1
			c-1.2,0-2.1,0.3-2.8,1c-0.7,0.7-1.1,1.5-1.1,2.5c0,0.6,0.2,1.2,0.5,1.7c0.3,0.5,0.8,0.8,1.5,1.1C96.7,30,96,30.4,95.6,31
			c-0.4,0.6-0.7,1.3-0.7,2.2c0,1.2,0.4,2.2,1.2,2.9c0.8,0.8,1.9,1.2,3.2,1.2c1.3,0,2.4-0.4,3.2-1.2
			C103.4,35.4,103.8,34.4,103.8,33.3z M102,59.8l-5.9-8l5.7-5.5h-2.4L92.6,53v-6.7h-1.8v13.5h1.8v-4.7l2.2-2.2l4.8,6.8H102z
			 M100,80.1V68.8c0-0.1-0.1-0.3-0.2-0.3h-0.3c-0.1,0-0.1,0-0.2,0.1l-0.5,0.6c-0.1,0-0.2,0-0.2,0c-0.3,0.1-0.4,0.3-0.4,0.5
			c0,0.1,0,0.1,0,0.2c0,0.1,0,0.1,0,0.1l-0.1,0.1c0,0,0,0-0.1,0c-0.4-0.1-0.5,0.4-0.6,0.5c0,0,0,0,0,0.1c0,0.1,0,0.2-0.1,0.3
			l-0.3,0.3c-0.1,0-0.1,0-0.2,0h0c-0.5,0-0.5,0.4-0.5,0.6c0,0,0,0.1,0,0.1v0c0,0,0,0,0,0c0,0,0,0,0,0c0,0-0.1,0-0.2,0
			c-0.2,0.1-0.2,0.3-0.3,0.6c0,0,0,0.1,0,0.1l-0.3,0.4c-0.1,0-0.1,0.1-0.2,0.1c-0.2,0.1-0.2,0.2-0.3,0.5l0,0l-0.4,0.5
			c0,0-0.1,0.1-0.1,0.2v0.1c0,0.1,0,0.1,0.1,0.2l0.4,0.4l0,0c-0.2,0.4-0.1,0.6,0,0.8c0.1,0.2,0.3,0.3,0.4,0.3c0.1,0,0.1,0,0.2,0
			c0.1,0,0.1,0,0.2,0c0,0,0.1,0.1,0.1,0.2c0,0.5,0.4,0.6,0.5,0.6c0,0,0.1,0,0.1,0c0.2,0,0.6,0.1,0.6,0.6c0.1,0.5,0.4,0.5,0.6,0.5
			c0,0,0.1,0,0.1,0c0,0,0,0,0,0.1c0,0,0,0.1,0.1,0.2c0.1,0.2,0.3,0.3,0.5,0.3c0.1,0,0.2,0,0.2,0.1l0.3,0.3c0,0.1,0.1,0.2,0.1,0.3
			c0.1,0.2,0.2,0.2,0.4,0.3h0l0.5,0.5c0,0.1,0.1,0.1,0.2,0.1h0.1C99.9,80.3,100,80.2,100,80.1z M94.1,81.2V68.8
			c0-0.2-0.2-0.4-0.4-0.4c-0.1,0-0.2,0-0.3,0.1v-0.2c0-0.2-0.2-0.4-0.4-0.4s-0.4,0.2-0.4,0.4v0.2c-0.1-0.1-0.2-0.1-0.3-0.1
			s-0.2,0-0.3,0.1v0c0-0.3-0.2-0.5-0.5-0.5c-0.3,0-0.5,0.2-0.5,0.5v0c-0.1-0.1-0.2-0.1-0.3-0.1c-0.2,0-0.4,0.2-0.4,0.4v12.3
			c0,0.2,0.2,0.4,0.4,0.4c0.1,0,0.2-0.1,0.3-0.1c0.1,0.2,0.3,0.3,0.5,0.3c0.2,0,0.4-0.2,0.5-0.3c0.1,0.1,0.2,0.1,0.3,0.1
			c0.1,0,0.2,0,0.3-0.1v0.2c0,0.2,0.2,0.4,0.4,0.4s0.4-0.2,0.4-0.4v-0.2c0.1,0.1,0.2,0.1,0.3,0.1C93.9,81.5,94.1,81.4,94.1,81.2z
			 M90.7,37.1V23.6h-1.1c-0.3,0.6-0.8,1.2-1.5,1.8c-0.7,0.6-1.5,1.2-2.4,1.6v1.6c0.5-0.2,1.1-0.5,1.7-0.9c0.7-0.4,1.2-0.8,1.6-1.1
			v10.6H90.7z M88.7,55.5L86.9,55c-0.2,1.1-0.7,2-1.4,2.6c-0.7,0.6-1.5,0.9-2.5,0.9c-0.8,0-1.6-0.2-2.3-0.6
			c-0.7-0.4-1.2-1.1-1.6-1.9c-0.3-0.9-0.5-1.9-0.5-3c0-0.9,0.1-1.8,0.4-2.6s0.8-1.5,1.5-2c0.7-0.5,1.6-0.8,2.6-0.8
			c0.9,0,1.7,0.2,2.3,0.7c0.6,0.4,1.1,1.2,1.4,2.1l1.8-0.4c-0.4-1.2-1-2.2-1.9-2.9c-0.9-0.7-2.1-1-3.4-1c-1.2,0-2.3,0.3-3.3,0.8
			c-1,0.5-1.8,1.3-2.3,2.4c-0.5,1-0.8,2.3-0.8,3.7c0,1.3,0.2,2.5,0.7,3.6c0.5,1.1,1.2,2,2.1,2.6c0.9,0.6,2.1,0.9,3.6,0.9
			c1.4,0,2.6-0.4,3.6-1.2C87.7,58,88.3,56.9,88.7,55.5z M86.7,69.4c0-0.3-0.2-0.5-0.4-0.5h-0.1c0.1-0.1,0.2-0.2,0.2-0.3
			c0-0.2-0.1-0.4-0.3-0.4h-2.2c-0.2,0-0.3,0.2-0.3,0.4c0,0.2,0.1,0.3,0.2,0.3c-0.2,0-0.3,0.2-0.4,0.4h-2.2c-2.2,0-4,2.4-4,5.4
			c0,3,1.8,5.4,4,5.4h2.2c0,0.2,0.2,0.4,0.4,0.4c-0.1,0.1-0.2,0.2-0.2,0.3c0,0.2,0.1,0.4,0.3,0.4h2.2c0.2,0,0.3-0.2,0.3-0.4
			c0-0.2-0.1-0.3-0.2-0.3h0.1c0.2,0,0.4-0.3,0.4-0.5c0-0.3-0.2-0.5-0.4-0.5h-2.5c-0.2,0-0.3,0.2-0.4,0.4h-2.2
			c-2.1,0-3.8-2.3-3.8-5.1s1.7-5.1,3.8-5.1h2.2c0,0.2,0.2,0.4,0.4,0.4h2.5C86.5,69.9,86.7,69.7,86.7,69.4z M82.8,30.5
			c0-1.3-0.1-2.4-0.3-3.2c-0.2-0.8-0.5-1.5-0.8-2c-0.3-0.5-0.8-1-1.3-1.3c-0.5-0.3-1.2-0.4-1.9-0.4c-1,0-1.8,0.3-2.4,0.8
			c-0.7,0.5-1.1,1.3-1.5,2.3c-0.3,1-0.5,2.3-0.5,3.8c0,2.5,0.4,4.4,1.3,5.5c0.7,0.9,1.8,1.4,3.1,1.4c1,0,1.8-0.3,2.5-0.8
			c0.7-0.5,1.1-1.3,1.5-2.3C82.6,33.3,82.8,32,82.8,30.5z M75.9,59.8l-5.5-13.5h-1.9l-5.2,13.5h1.9l1.5-4.1h5.6l1.6,4.1H75.9z
			 M75.9,80.3c0-0.1-0.1-0.3-0.2-0.4l-6-13.6l-5.9,13.6c-0.1,0.1-0.2,0.3-0.2,0.4c0,0.9,2.7,1.7,6.1,1.7
			C73.1,81.9,75.9,81.2,75.9,80.3z M72.2,37.1v-1.6h-6.6c0.2-0.3,0.4-0.6,0.7-0.9c0.3-0.3,0.9-0.9,1.9-1.7c1.2-1,2-1.8,2.6-2.4
			c0.5-0.6,0.9-1.1,1.1-1.6c0.2-0.5,0.3-1.1,0.3-1.6c0-1.1-0.4-1.9-1.1-2.7c-0.8-0.7-1.8-1.1-3.1-1.1c-1.3,0-2.3,0.3-3.1,1
			c-0.8,0.7-1.2,1.6-1.3,2.9l1.7,0.2c0-0.8,0.3-1.5,0.7-2c0.5-0.5,1.1-0.7,1.9-0.7c0.8,0,1.4,0.2,1.8,0.7c0.5,0.5,0.7,1,0.7,1.7
			c0,0.6-0.3,1.3-0.8,2c-0.5,0.7-1.5,1.6-3,2.9c-1,0.8-1.7,1.5-2.2,2s-0.9,1.2-1.1,1.8c-0.1,0.4-0.2,0.8-0.2,1.2H72.2z M61.8,59.8
			V46.3H60v5.5h-7v-5.5h-1.8v13.5H53v-6.4h7v6.4H61.8z M61.1,81.6V66.7h-11v14.9H61.1z"/>
		<rect x="164.1" y="66.4" class="st0" width="0.9" height="1"/>
		<path class="st0" d="M146.1,67.8c3.4,0,6.2,2.8,6.2,6.2s-2.8,6.2-6.2,6.2s-6.2-2.8-6.2-6.2S142.7,67.8,146.1,67.8z M146.3,74
			l3.8-3.6l-0.2-0.2l-3.7,3.5c-0.1,0-0.1-0.1-0.2-0.1c0,0-0.1,0-0.1,0l-2.4-2.4l-0.2,0.2l2.4,2.4v0c0,0.1,0.1,0.3,0.3,0.3
			C146.1,74.1,146.1,74.1,146.3,74C146.2,74.1,146.3,74,146.3,74z"/>
		<path class="st0" d="M149.8,50.1c0.4,0.8,0.6,1.8,0.6,2.9c0,1.7-0.4,3.1-1.3,4c-0.9,1-2,1.4-3.3,1.4c-1.3,0-2.4-0.5-3.3-1.4
			c-0.9-0.9-1.3-2.2-1.3-3.8c0-2,0.4-3.5,1.4-4.4c0.9-0.9,2-1.3,3.3-1.3c0.9,0,1.7,0.2,2.4,0.7C148.8,48.7,149.4,49.3,149.8,50.1z"
			/>
		<polygon class="st0" points="135.5,68.2 135.5,80.8 127.6,80.8 127.6,80.4 135.1,80.4 135.1,68.2 		"/>
		<rect x="127.6" y="73.9" class="st0" width="6.8" height="0.1"/>
		<rect x="127.6" y="73.2" class="st0" width="6.8" height="0.1"/>
		<path class="st0" d="M133.9,29.4c0.5,0.6,0.8,1.5,0.8,2.7c0,1.3-0.3,2.2-0.8,2.9c-0.6,0.6-1.2,0.9-2.1,0.9c-0.8,0-1.5-0.3-2.1-0.9
			c-0.5-0.6-0.8-1.6-0.8-2.8c0-1.3,0.3-2.2,0.8-2.8c0.6-0.6,1.2-0.9,2.1-0.9C132.7,28.5,133.4,28.8,133.9,29.4z"/>
		<rect x="129.1" y="69.9" class="st0" width="5" height="0.1"/>
		<rect x="128.5" y="77" class="st0" width="5" height="0.1"/>
		<rect x="128.5" y="76.6" class="st0" width="5" height="0.1"/>
		<rect x="128.5" y="70.7" class="st0" width="5" height="0.1"/>
		<polygon class="st0" points="125.5,68.4 124.7,68.6 124.7,68.2 		"/>
		<rect x="113.5" y="68.5" class="st0" width="10" height="0.5"/>
		<rect x="113.5" y="67.8" class="st0" width="10" height="0.5"/>
		<rect x="119.1" y="69.6" class="st0" width="0.5" height="10"/>
		<polygon class="st0" points="119.3,80.8 119.1,81.6 118.8,80.8 		"/>
		<rect x="118.5" y="69.6" class="st0" width="0.5" height="10"/>
		<path class="st0" d="M115.9,27.9l1.4,3.7h-4.6l1.5-4c0.3-0.9,0.6-1.7,0.7-2.6C115.1,25.8,115.4,26.7,115.9,27.9z"/>
		<path class="st0" d="M109.1,50.5l1.4,3.7h-4.6l1.5-4c0.3-0.8,0.6-1.7,0.7-2.6C108.3,48.4,108.6,49.3,109.1,50.5z"/>
		<path class="st0" d="M102.1,33.3c0,0.8-0.3,1.4-0.8,1.9c-0.5,0.5-1.2,0.8-2,0.8c-0.5,0-1-0.1-1.4-0.4c-0.4-0.2-0.8-0.6-1-1
			c-0.2-0.4-0.3-0.9-0.3-1.4c0-0.8,0.3-1.4,0.8-1.9c0.5-0.5,1.2-0.8,1.9-0.8c0.8,0,1.5,0.3,2,0.8C101.9,31.8,102.1,32.5,102.1,33.3z
			"/>
		<path class="st0" d="M101.6,27.1c0,0.6-0.2,1.1-0.6,1.5c-0.4,0.4-0.9,0.6-1.6,0.6c-0.7,0-1.2-0.2-1.6-0.6
			c-0.4-0.4-0.6-0.9-0.6-1.6c0-0.6,0.2-1,0.6-1.5c0.4-0.4,0.9-0.6,1.6-0.6s1.2,0.2,1.6,0.6S101.6,26.5,101.6,27.1z"/>
		<polygon class="st0" points="99.7,68.8 99.7,80.1 99.6,80.1 94.5,74.7 94.5,74.6 99.4,68.8 		"/>
		<path class="st0" d="M98.6,69.4L98.2,70c0,0,0-0.1,0-0.1C98.2,69.7,98.3,69.5,98.6,69.4C98.6,69.4,98.6,69.4,98.6,69.4z"/>
		<path class="st0" d="M94.8,75.4l3.2,3.4c0,0,0,0-0.1,0c-0.2,0-0.4-0.1-0.4-0.2c0-0.1,0-0.2,0-0.2c0-0.1,0-0.1-0.1-0.2
			c0,0-0.1,0-0.1,0c-0.2,0-0.4,0-0.5-0.4c-0.1-0.6-0.5-0.7-0.7-0.7c0,0-0.1,0-0.1,0c-0.2,0-0.4-0.1-0.4-0.5c0-0.1,0-0.2-0.1-0.3
			c-0.1-0.1-0.2-0.1-0.3-0.1c0,0-0.1,0-0.1,0c-0.1,0-0.3-0.1-0.3-0.3C94.7,75.9,94.7,75.7,94.8,75.4z"/>
		<path class="st0" d="M96.8,71.6l-0.5,0.6c0,0,0,0,0,0C96.3,71.9,96.4,71.6,96.8,71.6L96.8,71.6C96.7,71.6,96.8,71.6,96.8,71.6z"/>
		<path class="st0" d="M96.1,72.4l-0.4,0.5c0.1-0.2,0.1-0.4,0.2-0.4C96,72.4,96.1,72.4,96.1,72.4L96.1,72.4z"/>
		<path class="st0" d="M95.1,73.6l-0.1,0.2C95,73.7,95,73.6,95.1,73.6z"/>
		<path class="st0" d="M93.2,68.3v13.3c0,0.1-0.1,0.2-0.2,0.2c-0.1,0-0.2-0.1-0.2-0.2V68.3c0-0.1,0.1-0.2,0.2-0.2
			C93.2,68.2,93.2,68.2,93.2,68.3z"/>
		<path class="st0" d="M91.9,68.5v12.7c0,0.2-0.1,0.3-0.3,0.3c-0.2,0-0.3-0.1-0.3-0.3V68.5c0-0.1,0.1-0.3,0.3-0.3
			C91.8,68.3,91.9,68.4,91.9,68.5z"/>
		<path class="st0" d="M86.1,68.3c0.1,0,0.2,0.1,0.2,0.3s-0.1,0.3-0.2,0.3h-2.2c-0.1,0-0.2-0.1-0.2-0.3s0.1-0.3,0.2-0.3H86.1z"/>
		<path class="st0" d="M86.1,80.5c0.1,0,0.2,0.1,0.2,0.3S86.3,81,86.1,81h-2.2c-0.1,0-0.2-0.1-0.2-0.3s0.1-0.3,0.2-0.3H86.1z"/>
		<path class="st0" d="M80.3,26c0.5,0.7,0.8,2.2,0.8,4.4c0,2.2-0.3,3.7-0.8,4.4c-0.5,0.7-1.2,1.1-1.9,1.1c-0.8,0-1.4-0.4-1.9-1.1
			c-0.5-0.7-0.8-2.2-0.8-4.4c0-2.2,0.3-3.7,0.8-4.6c0.5-0.6,1.1-1,1.8-1C79.1,25,79.8,25.3,80.3,26z"/>
		<path class="st0" d="M74.9,79.1c0.1,0.1,0.1,0.2,0.1,0.3c0,0.8-2.4,1.4-5.3,1.4c-2.9,0-5.3-0.6-5.3-1.4c0-0.1,0.1-0.2,0.1-0.3
			l5.2-11.8L74.9,79.1z M72.6,78.2c0-0.4-0.4-0.7-1-0.7c-0.5,0-0.9,0.3-0.9,0.7c0,0.4,0.4,0.7,0.9,0.7
			C72.1,78.9,72.6,78.6,72.6,78.2z M72.4,75.6c0-0.7-0.8-1.3-1.7-1.3s-1.7,0.6-1.7,1.3c0,0.7,0.8,1.3,1.7,1.3S72.4,76.3,72.4,75.6z
			 M70.6,71.6c0-0.3-0.3-0.5-0.7-0.5c-0.4,0-0.7,0.2-0.7,0.5c0,0.3,0.3,0.5,0.7,0.5C70.3,72.1,70.6,71.9,70.6,71.6z M69.1,73.5
			c0.1-0.3-0.2-0.5-0.5-0.6c-0.4-0.1-0.7,0.1-0.8,0.4c-0.1,0.3,0.2,0.5,0.5,0.6C68.6,74,69,73.8,69.1,73.5z M69.8,79.6
			c0-0.4-0.4-0.7-1-0.7c-0.6,0-1,0.3-1,0.7c0,0.4,0.5,0.7,1,0.7C69.3,80.3,69.8,80,69.8,79.6z M68,77.7c0-0.5-0.5-0.9-1.2-0.9
			c-0.7,0-1.2,0.4-1.2,0.9c0,0.5,0.5,0.9,1.2,0.9C67.5,78.5,68,78.2,68,77.7z"/>
		<path class="st0" d="M70.3,50.5l1.4,3.7h-4.6l1.5-4c0.3-0.8,0.6-1.7,0.7-2.6C69.6,48.4,69.9,49.3,70.3,50.5z"/>
		<rect x="50.5" y="74.7" class="st0" width="10.2" height="3.8"/>
		<rect x="50.5" y="67.3" class="st0" width="10.2" height="6.9"/>
		<rect x="53.4" y="78.7" class="st0" width="4.3" height="2.5"/>
	</g>
	<g>
	</g>
</g>
</svg>
