<?xml version="1.0" encoding="utf-8"?>
<!-- Generator: Adobe Illustrator 21.0.0, SVG Export Plug-In . SVG Version: 6.00 Build 0)  -->
<svg version="1.1" id="圖層_1" xmlns="http://www.w3.org/2000/svg" xmlns:xlink="http://www.w3.org/1999/xlink" x="0px" y="0px"
	 viewBox="0 0 385 337" style="enable-background:new 0 0 385 337;" xml:space="preserve">
<style type="text/css">
	.st0{fill:#FFFFFF;}
	.st1{font-family:'ArialMT';}
	.st2{font-size:13.7208px;}
	.st3{fill:none;stroke:#FFFFFF;stroke-miterlimit:10;}
	.st4{font-size:9.5046px;}
	.st5{font-size:11.1929px;}
	.st6{font-size:8.7462px;}
	.st7{font-size:9.6212px;}
	.st8{font-size:8.7558px;}
	.st9{font-size:8.2812px;}
	.st10{font-size:6.6403px;}
	.st11{font-size:6.3233px;}
	.st12{font-size:5.773px;}
	.st13{font-size:7.8107px;}
	.st14{fill:#333333;}
</style>
<g>
	<g>
		<g>
			<text transform="matrix(1 0 0 1 170.9487 115.2598)" class="st0 st1 st2">MACHINE</text>
		</g>
		<g>
			<rect x="139.5" y="91.5" class="st3" width="129.5" height="36.7"/>
			<polyline class="st3" points="269,92.8 271.9,92.8 271.9,131.4 142.4,131.4 142.4,128.2 			"/>
		</g>
	</g>
	<g>
		<g>
			<text transform="matrix(1 0 0 1 11.8335 121.7422)" class="st0 st1 st4">ENVIRONMENT</text>
		</g>
		<g>
			<rect x="0.6" y="105.3" class="st3" width="89.7" height="25.5"/>
			<polyline class="st3" points="90.3,106.2 92.3,106.2 92.3,132.9 2.6,132.9 2.6,130.7 			"/>
		</g>
	</g>
	<g>
		<g>
			<text transform="matrix(1 0 0 1 58.7202 19.5693)" class="st0 st1 st5">MDEICAL</text>
		</g>
		<g>
			<rect x="28.8" y="0.2" class="st3" width="105.6" height="30"/>
			<polyline class="st3" points="134.5,1.3 136.8,1.3 136.8,32.7 31.2,32.7 31.2,30.1 			"/>
		</g>
	</g>
	<g>
		<g>
			<text transform="matrix(1 0 0 1 321.606 26.2734)" class="st0 st1 st6">MDEICAL</text>
		</g>
		<g>
			<rect x="298.3" y="11.1" class="st3" width="82.6" height="23.4"/>
			<polyline class="st3" points="380.8,12 382.6,12 382.6,36.5 300.1,36.5 300.1,34.5 			"/>
		</g>
	</g>
	<g>
		<g>
			<text transform="matrix(1 0 0 1 165.7661 56.8027)" class="st0 st1 st7">IDENTITY</text>
		</g>
		<g>
			<rect x="144" y="40.1" class="st3" width="90.8" height="25.8"/>
			<polyline class="st3" points="234.8,41.1 236.9,41.1 236.9,68.1 146,68.1 146,65.9 			"/>
		</g>
	</g>
	<g>
		<g>
			<text transform="matrix(1 0 0 1 57.9224 72.8203)" class="st0 st1 st8">ECONOMY</text>
		</g>
		<g>
			<rect x="38.1" y="57.6" class="st3" width="82.6" height="23.4"/>
			<polyline class="st3" points="120.8,58.5 122.6,58.5 122.6,83.1 40,83.1 40,81.1 			"/>
		</g>
	</g>
	<g>
		<g>
			<text transform="matrix(1 0 0 1 282.3716 69.8066)" class="st0 st1 st9">EDUCATION</text>
		</g>
		<g>
			<rect x="267.2" y="55.4" class="st3" width="78.2" height="22.2"/>
			<polyline class="st3" points="345.4,56.3 347.1,56.3 347.1,79.5 268.9,79.5 268.9,77.6 			"/>
		</g>
	</g>
	<g>
		<g>
			<text transform="matrix(1 0 0 1 315.353 111.9873)" class="st0 st1 st10">TRANSPORTATION</text>
		</g>
		<g>
			<rect x="305.8" y="98.1" class="st3" width="77.6" height="22"/>
			<polyline class="st3" points="383.5,99 385.2,99 385.2,122.1 307.5,122.1 307.5,120.2 			"/>
		</g>
	</g>
	<g>
		<g>
			<text transform="matrix(1 0 0 1 307.7476 151.834)" class="st0 st1 st11">PRODUCTION</text>
		</g>
		<g>
			<rect x="289.4" y="138.7" class="st3" width="73.9" height="21"/>
			<polyline class="st3" points="363.3,139.4 364.9,139.4 364.9,161.4 291,161.4 291,159.6 			"/>
		</g>
	</g>
	<g>
		<g>
			<text transform="matrix(1 0 0 1 63.3628 164.3711)" class="st0 st1 st12">TRANSPORTATION</text>
		</g>
		<g>
			<rect x="55.1" y="152.3" class="st3" width="67.5" height="19.2"/>
			<polyline class="st3" points="122.6,153 124.1,153 124.1,173.1 56.6,173.1 56.6,171.5 			"/>
		</g>
	</g>
	<g>
		<g>
			<text transform="matrix(1 0 0 1 221.2642 14.7969)" class="st0 st1 st13">TRAFFIC</text>
		</g>
		<g>
			<rect x="199.3" y="1.3" class="st3" width="73.7" height="20.9"/>
			<polyline class="st3" points="273,2 274.7,2 274.7,24 201,24 201,22.2 			"/>
		</g>
	</g>
	<path class="st14" d="M133.5,145.6v191.1h141.7V145.6H133.5z M232,331.6h-55.3v-32.1H232V331.6z M269.7,297.2H138.9v-48.7h130.8
		V297.2z M269.7,241.2H138.9V153h130.8V241.2z"/>
	<line class="st3" x1="86.3" y1="32.5" x2="86.3" y2="57.6"/>
	<line class="st3" x1="225.9" y1="23.7" x2="225.9" y2="40.1"/>
	<line class="st3" x1="328.3" y1="36.3" x2="328.3" y2="55.4"/>
	<line class="st3" x1="342" y1="79.5" x2="342" y2="98.7"/>
	<line class="st3" x1="188.7" y1="68" x2="188.7" y2="91.6"/>
	<line class="st3" x1="79.2" y1="83.4" x2="79.2" y2="105.3"/>
	<line class="st3" x1="85.2" y1="132.6" x2="85.2" y2="152.3"/>
	<line class="st3" x1="92.3" y1="116.2" x2="139.4" y2="116.2"/>
	<line class="st3" x1="271.9" y1="108" x2="305.8" y2="108"/>
	<line class="st3" x1="339.2" y1="122.2" x2="339.2" y2="138.7"/>
	<line class="st3" x1="136.7" y1="12.2" x2="199.1" y2="12.2"/>
	<line class="st3" x1="274.6" y1="18.8" x2="298.2" y2="18.8"/>
	<line class="st3" x1="122.4" y1="60.9" x2="143.8" y2="60.9"/>
	<line class="st3" x1="236.9" y1="65.3" x2="267" y2="65.3"/>
</g>
</svg>
