<?xml version="1.0" encoding="utf-8"?>
<!-- Generator: Adobe Illustrator 21.0.0, SVG Export Plug-In . SVG Version: 6.00 Build 0)  -->
<svg version="1.1" id="圖層_1" xmlns="http://www.w3.org/2000/svg" xmlns:xlink="http://www.w3.org/1999/xlink" x="0px" y="0px"
	 viewBox="0 0 395 244" style="enable-background:new 0 0 395 244;" xml:space="preserve">
<style type="text/css">
	.st0{clip-path:url(#SVGID_2_);fill:none;stroke:#333333;stroke-width:2;stroke-miterlimit:10;}
	.st1{fill:#F9D021;}
	.st2{opacity:9.000000e-02;fill:#333333;}
	.st3{fill:#FFFFFF;}
	.st4{font-family:'ArialMT';}
	.st5{font-size:23.6142px;}
	.st6{fill:#333333;}
	.st7{fill:#E8C223;}
	.st8{font-size:26.8708px;}
	.st9{letter-spacing:5;}
</style>
<g>
	<g>
		<defs>
			<rect id="SVGID_1_" x="17" y="20" width="378" height="224"/>
		</defs>
		<clipPath id="SVGID_2_">
			<use xlink:href="#SVGID_1_"  style="overflow:visible;"/>
		</clipPath>
		<line class="st0" x1="-358.1" y1="244.6" x2="164.4" y2="767.1"/>
		<line class="st0" x1="-353.9" y1="240.3" x2="168.7" y2="762.9"/>
		<line class="st0" x1="-349.6" y1="236.1" x2="173" y2="758.6"/>
		<line class="st0" x1="-345.3" y1="231.9" x2="177.2" y2="754.4"/>
		<line class="st0" x1="-341" y1="227.6" x2="181.5" y2="750.2"/>
		<line class="st0" x1="-336.8" y1="223.4" x2="185.8" y2="745.9"/>
		<line class="st0" x1="-332.5" y1="219.1" x2="190.1" y2="741.7"/>
		<line class="st0" x1="-328.2" y1="214.9" x2="194.4" y2="737.4"/>
		<line class="st0" x1="-323.9" y1="210.6" x2="198.6" y2="733.2"/>
		<line class="st0" x1="-319.6" y1="206.4" x2="202.9" y2="728.9"/>
		<line class="st0" x1="-315.4" y1="202.2" x2="207.2" y2="724.7"/>
		<line class="st0" x1="-311.1" y1="197.9" x2="211.5" y2="720.5"/>
		<line class="st0" x1="-306.8" y1="193" x2="215.7" y2="715.5"/>
		<line class="st0" x1="-302.5" y1="188.7" x2="220" y2="711.3"/>
		<line class="st0" x1="-298.3" y1="184.5" x2="224.3" y2="707"/>
		<line class="st0" x1="-294" y1="180.2" x2="228.6" y2="702.8"/>
		<line class="st0" x1="-289.7" y1="176" x2="232.8" y2="698.5"/>
		<line class="st0" x1="-285.4" y1="171.7" x2="237.1" y2="694.3"/>
		<line class="st0" x1="-281.2" y1="167.5" x2="241.4" y2="690.1"/>
		<line class="st0" x1="-276.9" y1="163.3" x2="245.7" y2="685.8"/>
		<line class="st0" x1="-272.6" y1="159" x2="249.9" y2="681.6"/>
		<line class="st0" x1="-268.3" y1="154.8" x2="254.2" y2="677.3"/>
		<line class="st0" x1="-264.1" y1="150.5" x2="258.5" y2="673.1"/>
		<line class="st0" x1="-259.8" y1="146.3" x2="262.8" y2="668.8"/>
		<line class="st0" x1="-255.5" y1="142" x2="267" y2="664.6"/>
		<line class="st0" x1="-251.2" y1="137.8" x2="271.3" y2="660.4"/>
		<line class="st0" x1="-247" y1="133.6" x2="275.6" y2="656.1"/>
		<line class="st0" x1="-242.7" y1="129.3" x2="279.9" y2="651.9"/>
		<line class="st0" x1="-238.4" y1="125.1" x2="284.1" y2="647.6"/>
		<line class="st0" x1="-234.1" y1="120.8" x2="288.4" y2="643.4"/>
		<line class="st0" x1="-229.9" y1="116.6" x2="292.7" y2="639.1"/>
		<line class="st0" x1="-225.6" y1="112.3" x2="297" y2="634.9"/>
		<line class="st0" x1="-221.3" y1="108.1" x2="301.3" y2="630.7"/>
		<line class="st0" x1="-217" y1="103.9" x2="305.5" y2="626.4"/>
		<line class="st0" x1="-212.7" y1="99.6" x2="309.8" y2="622.2"/>
		<line class="st0" x1="-208.5" y1="95.4" x2="314.1" y2="617.9"/>
		<line class="st0" x1="-204.2" y1="90.4" x2="318.4" y2="613"/>
		<line class="st0" x1="-199.9" y1="86.2" x2="322.6" y2="608.7"/>
		<line class="st0" x1="-195.6" y1="81.9" x2="326.9" y2="604.5"/>
		<line class="st0" x1="-191.4" y1="77.7" x2="331.2" y2="600.3"/>
		<line class="st0" x1="-187.1" y1="73.5" x2="335.5" y2="596"/>
		<line class="st0" x1="-182.8" y1="69.2" x2="339.7" y2="591.8"/>
		<line class="st0" x1="-178.5" y1="65" x2="344" y2="587.5"/>
		<line class="st0" x1="-174.3" y1="60.7" x2="348.3" y2="583.3"/>
		<line class="st0" x1="-170" y1="56.5" x2="352.6" y2="579"/>
		<line class="st0" x1="-165.7" y1="52.2" x2="356.8" y2="574.8"/>
		<line class="st0" x1="-161.4" y1="48" x2="361.1" y2="570.6"/>
		<line class="st0" x1="-157.2" y1="43.8" x2="365.4" y2="566.3"/>
		<line class="st0" x1="-152.9" y1="39.5" x2="369.7" y2="562.1"/>
		<line class="st0" x1="-148.6" y1="35.3" x2="373.9" y2="557.8"/>
		<line class="st0" x1="-144.3" y1="31" x2="378.2" y2="553.6"/>
		<line class="st0" x1="-140.1" y1="26.8" x2="382.5" y2="549.3"/>
		<line class="st0" x1="-135.8" y1="22.5" x2="386.8" y2="545.1"/>
		<line class="st0" x1="-131.5" y1="18.3" x2="391" y2="540.9"/>
		<line class="st0" x1="-127.2" y1="14.1" x2="395.3" y2="536.6"/>
		<line class="st0" x1="-123" y1="9.8" x2="399.6" y2="532.4"/>
		<line class="st0" x1="-118.7" y1="5.6" x2="403.9" y2="528.1"/>
		<line class="st0" x1="-114.4" y1="1.3" x2="408.2" y2="523.9"/>
		<line class="st0" x1="-110.1" y1="-2.9" x2="412.4" y2="519.6"/>
		<line class="st0" x1="-105.8" y1="-7.2" x2="416.7" y2="515.4"/>
		<line class="st0" x1="-101.6" y1="-12.1" x2="421" y2="510.5"/>
		<line class="st0" x1="-97.3" y1="-16.3" x2="425.3" y2="506.2"/>
		<line class="st0" x1="-93" y1="-20.6" x2="429.5" y2="502"/>
		<line class="st0" x1="-88.7" y1="-24.8" x2="433.8" y2="497.7"/>
		<line class="st0" x1="-84.5" y1="-29.1" x2="438.1" y2="493.5"/>
		<line class="st0" x1="-80.2" y1="-33.3" x2="442.4" y2="489.2"/>
		<line class="st0" x1="-75.9" y1="-37.6" x2="446.6" y2="485"/>
		<line class="st0" x1="-71.6" y1="-41.8" x2="450.9" y2="480.8"/>
		<line class="st0" x1="-67.4" y1="-46" x2="455.2" y2="476.5"/>
		<line class="st0" x1="-63.1" y1="-50.3" x2="459.5" y2="472.3"/>
		<line class="st0" x1="-58.8" y1="-54.5" x2="463.7" y2="468"/>
		<line class="st0" x1="-54.5" y1="-58.8" x2="468" y2="463.8"/>
		<line class="st0" x1="-50.3" y1="-63" x2="472.3" y2="459.5"/>
		<line class="st0" x1="-46" y1="-67.3" x2="476.6" y2="455.3"/>
		<line class="st0" x1="-41.7" y1="-71.5" x2="480.8" y2="451.1"/>
		<line class="st0" x1="-37.4" y1="-75.7" x2="485.1" y2="446.8"/>
		<line class="st0" x1="-33.2" y1="-80" x2="489.4" y2="442.6"/>
		<line class="st0" x1="-28.9" y1="-84.2" x2="493.7" y2="438.3"/>
		<line class="st0" x1="-24.6" y1="-88.5" x2="497.9" y2="434.1"/>
		<line class="st0" x1="-20.3" y1="-92.7" x2="502.2" y2="429.8"/>
		<line class="st0" x1="-16.1" y1="-97" x2="506.5" y2="425.6"/>
		<line class="st0" x1="-11.8" y1="-101.2" x2="510.8" y2="421.4"/>
		<line class="st0" x1="-7.5" y1="-105.4" x2="515.1" y2="417.1"/>
		<line class="st0" x1="-3.2" y1="-109.7" x2="519.3" y2="412.9"/>
		<line class="st0" x1="1.1" y1="-114.6" x2="523.6" y2="407.9"/>
		<line class="st0" x1="5.3" y1="-118.9" x2="527.9" y2="403.7"/>
		<line class="st0" x1="9.6" y1="-123.1" x2="532.2" y2="399.4"/>
		<line class="st0" x1="13.9" y1="-127.4" x2="536.4" y2="395.2"/>
		<line class="st0" x1="18.2" y1="-131.6" x2="540.7" y2="390.9"/>
		<line class="st0" x1="22.4" y1="-135.8" x2="545" y2="386.7"/>
		<line class="st0" x1="26.7" y1="-140.1" x2="549.3" y2="382.5"/>
		<line class="st0" x1="31" y1="-144.3" x2="553.5" y2="378.2"/>
		<line class="st0" x1="35.3" y1="-148.6" x2="557.8" y2="374"/>
		<line class="st0" x1="39.5" y1="-152.8" x2="562.1" y2="369.7"/>
		<line class="st0" x1="43.8" y1="-157.1" x2="566.4" y2="365.5"/>
		<line class="st0" x1="48.1" y1="-161.3" x2="570.6" y2="361.3"/>
		<line class="st0" x1="52.4" y1="-166.3" x2="574.9" y2="356.3"/>
		<line class="st0" x1="56.6" y1="-170.5" x2="579.2" y2="352.1"/>
		<line class="st0" x1="60.9" y1="-174.7" x2="583.5" y2="347.8"/>
		<line class="st0" x1="65.2" y1="-179" x2="587.7" y2="343.6"/>
		<line class="st0" x1="69.5" y1="-183.2" x2="592" y2="339.3"/>
		<line class="st0" x1="73.7" y1="-187.5" x2="596.3" y2="335.1"/>
		<line class="st0" x1="78" y1="-191.7" x2="600.6" y2="330.8"/>
		<line class="st0" x1="82.3" y1="-195.9" x2="604.8" y2="326.6"/>
		<line class="st0" x1="86.6" y1="-200.2" x2="609.1" y2="322.4"/>
		<line class="st0" x1="90.8" y1="-204.4" x2="613.4" y2="318.1"/>
		<line class="st0" x1="95.1" y1="-208.7" x2="617.7" y2="313.9"/>
		<line class="st0" x1="99.4" y1="-212.9" x2="621.9" y2="309.6"/>
		<line class="st0" x1="103.7" y1="-217.9" x2="626.2" y2="304.7"/>
		<line class="st0" x1="107.9" y1="-222.1" x2="630.5" y2="300.4"/>
		<line class="st0" x1="112.2" y1="-226.4" x2="634.8" y2="296.2"/>
		<line class="st0" x1="116.5" y1="-230.6" x2="639.1" y2="292"/>
		<line class="st0" x1="120.8" y1="-234.8" x2="643.3" y2="287.7"/>
		<line class="st0" x1="125.1" y1="-239.1" x2="647.6" y2="283.5"/>
		<line class="st0" x1="129.3" y1="-243.3" x2="651.9" y2="279.2"/>
		<line class="st0" x1="133.6" y1="-247.6" x2="656.2" y2="275"/>
		<line class="st0" x1="137.9" y1="-251.8" x2="660.4" y2="270.7"/>
		<line class="st0" x1="142.2" y1="-256.1" x2="664.7" y2="266.5"/>
		<line class="st0" x1="146.4" y1="-260.3" x2="669" y2="262.3"/>
		<line class="st0" x1="150.7" y1="-264.5" x2="673.3" y2="258"/>
		<line class="st0" x1="155" y1="-268.8" x2="677.5" y2="253.8"/>
		<line class="st0" x1="159.3" y1="-273" x2="681.8" y2="249.5"/>
		<line class="st0" x1="163.5" y1="-277.3" x2="686.1" y2="245.3"/>
		<line class="st0" x1="167.8" y1="-281.5" x2="690.4" y2="241"/>
		<line class="st0" x1="172.1" y1="-285.8" x2="694.6" y2="236.8"/>
		<line class="st0" x1="176.4" y1="-290" x2="698.9" y2="232.6"/>
		<line class="st0" x1="180.6" y1="-294.2" x2="703.2" y2="228.3"/>
		<line class="st0" x1="184.9" y1="-298.5" x2="707.5" y2="224.1"/>
		<line class="st0" x1="189.2" y1="-302.7" x2="711.7" y2="219.8"/>
		<line class="st0" x1="193.5" y1="-307" x2="716" y2="215.6"/>
		<line class="st0" x1="197.7" y1="-311.2" x2="720.3" y2="211.3"/>
		<line class="st0" x1="202" y1="-315.5" x2="724.6" y2="207.1"/>
		<line class="st0" x1="206.3" y1="-320.4" x2="728.8" y2="202.2"/>
		<line class="st0" x1="210.6" y1="-324.6" x2="733.1" y2="197.9"/>
		<line class="st0" x1="214.8" y1="-328.9" x2="737.4" y2="193.7"/>
		<line class="st0" x1="219.1" y1="-333.1" x2="741.7" y2="189.4"/>
		<line class="st0" x1="223.4" y1="-337.4" x2="746" y2="185.2"/>
		<line class="st0" x1="227.7" y1="-341.6" x2="750.2" y2="180.9"/>
		<line class="st0" x1="232" y1="-345.9" x2="754.5" y2="176.7"/>
		<line class="st0" x1="236.2" y1="-350.1" x2="758.8" y2="172.5"/>
		<line class="st0" x1="240.5" y1="-354.3" x2="763.1" y2="168.2"/>
		<line class="st0" x1="244.8" y1="-358.6" x2="767.3" y2="164"/>
		<line class="st0" x1="249.1" y1="-362.8" x2="771.6" y2="159.7"/>
		<line class="st0" x1="253.3" y1="-367.1" x2="775.9" y2="155.5"/>
		<line class="st0" x1="257.6" y1="-371.3" x2="780.2" y2="151.2"/>
		<line class="st0" x1="261.9" y1="-375.6" x2="784.4" y2="147"/>
		<line class="st0" x1="266.2" y1="-379.8" x2="788.7" y2="142.8"/>
		<line class="st0" x1="270.4" y1="-384" x2="793" y2="138.5"/>
		<line class="st0" x1="274.7" y1="-388.3" x2="797.3" y2="134.3"/>
		<line class="st0" x1="279" y1="-392.5" x2="801.5" y2="130"/>
		<line class="st0" x1="283.3" y1="-396.8" x2="805.8" y2="125.8"/>
		<line class="st0" x1="287.5" y1="-401" x2="810.1" y2="121.5"/>
		<line class="st0" x1="291.8" y1="-405.3" x2="814.4" y2="117.3"/>
		<line class="st0" x1="296.1" y1="-409.5" x2="818.6" y2="113.1"/>
		<line class="st0" x1="300.4" y1="-413.7" x2="822.9" y2="108.8"/>
		<line class="st0" x1="304.6" y1="-418" x2="827.2" y2="104.6"/>
		<line class="st0" x1="308.9" y1="-422.9" x2="831.5" y2="99.6"/>
		<line class="st0" x1="313.2" y1="-427.2" x2="835.7" y2="95.4"/>
		<line class="st0" x1="317.5" y1="-431.4" x2="840" y2="91.1"/>
		<line class="st0" x1="321.7" y1="-435.7" x2="844.3" y2="86.9"/>
		<line class="st0" x1="326" y1="-439.9" x2="848.6" y2="82.7"/>
		<line class="st0" x1="330.3" y1="-444.1" x2="852.9" y2="78.4"/>
		<line class="st0" x1="334.6" y1="-448.4" x2="857.1" y2="74.2"/>
		<line class="st0" x1="338.9" y1="-452.6" x2="861.4" y2="69.9"/>
		<line class="st0" x1="343.1" y1="-456.9" x2="865.7" y2="65.7"/>
		<line class="st0" x1="347.4" y1="-461.1" x2="870" y2="61.4"/>
		<line class="st0" x1="351.7" y1="-465.4" x2="874.2" y2="57.2"/>
		<line class="st0" x1="356" y1="-469.6" x2="878.5" y2="53"/>
		<line class="st0" x1="360.2" y1="-473.8" x2="882.8" y2="48.7"/>
		<line class="st0" x1="364.5" y1="-478.1" x2="887.1" y2="44.5"/>
		<line class="st0" x1="368.8" y1="-482.3" x2="891.3" y2="40.2"/>
		<line class="st0" x1="373.1" y1="-486.6" x2="895.6" y2="36"/>
		<line class="st0" x1="377.3" y1="-490.8" x2="899.9" y2="31.7"/>
		<line class="st0" x1="381.6" y1="-495.1" x2="904.2" y2="27.5"/>
		<line class="st0" x1="385.9" y1="-499.3" x2="908.4" y2="23.3"/>
		<line class="st0" x1="390.2" y1="-503.5" x2="912.7" y2="19"/>
		<line class="st0" x1="394.4" y1="-507.8" x2="917" y2="14.8"/>
		<line class="st0" x1="398.7" y1="-512" x2="921.3" y2="10.5"/>
		<line class="st0" x1="403" y1="-516.3" x2="925.5" y2="6.3"/>
		<line class="st0" x1="407.3" y1="-520.5" x2="929.8" y2="2"/>
		<line class="st0" x1="411.5" y1="-525.5" x2="934.1" y2="-2.9"/>
		<line class="st0" x1="415.8" y1="-529.7" x2="938.4" y2="-7.2"/>
		<line class="st0" x1="420.1" y1="-533.9" x2="942.6" y2="-11.4"/>
		<line class="st0" x1="424.4" y1="-538.2" x2="946.9" y2="-15.6"/>
		<line class="st0" x1="428.6" y1="-542.4" x2="951.2" y2="-19.9"/>
		<line class="st0" x1="432.9" y1="-546.7" x2="955.5" y2="-24.1"/>
		<line class="st0" x1="437.2" y1="-550.9" x2="959.8" y2="-28.4"/>
		<line class="st0" x1="441.5" y1="-555.2" x2="964" y2="-32.6"/>
		<line class="st0" x1="445.8" y1="-559.4" x2="968.3" y2="-36.9"/>
		<line class="st0" x1="450" y1="-563.6" x2="972.6" y2="-41.1"/>
		<line class="st0" x1="454.3" y1="-567.9" x2="976.9" y2="-45.3"/>
		<line class="st0" x1="458.6" y1="-572.1" x2="981.1" y2="-49.6"/>
	</g>
	<rect class="st1" width="378" height="224"/>
	<rect class="st2" width="378" height="224"/>
</g>
<g>
	<text transform="matrix(1 0 0 1 67.5642 192.332)" class="st3 st4 st5">18’ OCT 06 - 18’ OCT 08</text>
</g>
<g>
	<g>
		<circle class="st6" cx="197.5" cy="114" r="34.8"/>
		<g>
			<g>
				<path class="st7" d="M197.5,81.3c-18.1,0-32.7,14.7-32.7,32.7s14.7,32.7,32.7,32.7c18.1,0,32.7-14.7,32.7-32.7
					S215.6,81.3,197.5,81.3z M198,114.5l-0.5-0.5l-0.5,0.5l-13.9-13.9l0.9-0.9l13.5,13.5l20-19.2l0.9,0.9L198,114.5z"/>
				<polygon class="st7" points="197.5,113.1 197,113.5 197.5,114 198,113.5 				"/>
			</g>
		</g>
		<circle class="st6" cx="197.2" cy="113.4" r="1.3"/>
	</g>
</g>
<g>
	<text transform="matrix(1 0 0 1 145.7041 35.8643)" class="st6 st4 st8 st9">WHEN</text>
</g>
</svg>
